/* XPM */
static const char *anime_girl_wall[] = {
/* columns rows colors chars-per-pixel */
"64 64 9 1 ",
"  c #46285A",
". c #FF3264",
"X c #FFC864",
"o c #323296",
"O c #64C8FF",
"+ c #9696FF",
"@ c #F5C8DC",
"# c #FFDCD2",
"$ c #FFD2E6",
/* pixels */
"@$$$$$$$$$$$$$$$@$$$$$$$$$$$$$$$$$$$$$$$$$$$$$$$@$$$$$$$@$$$$$$$",
"$$$$$$$$$$$$$$$$$$$$$$$$$$$$$$$$$$$$$$$$$$$$$$$$$$$$$$$$$$$$$$$$",
"$$$$$$$$$$$$$$$$$$$$$$$$$$$$$$$$$$$$$$$$$$$$$$$$$$$$$$$$$$XX$XX$",
"$$$$$$$$$$$$$$$$$$$$$$$$$$$$$$$$$$$$$$$$$$$$$$$$$$$$$$$$$XXXXXXX",
"$$$$$$$$$$$$$$$$$$$$$$$$$$$$$$$$$$$$$$$$$$$$$$$$$$$$$$$$$XXXXXXX",
"$$$$$$$$$$$$$$$$$$$$$$$$$$$$$$$$$$$$$$$$$$$$$$$$$$$$$$$$$XXXXXXX",
"$$$$$$$$$$$$$$$$$$$$$$$$$$$$$$$$$$$$$$$$$$$$$$$$$$$$$$$$$XXXXXXX",
"$$$$$$$$$$$$$$$$$$$$$$$$$$$$$$$$$$$$$$$$$$$$$$$$$$$$$$$$$XXXXXXX",
"$$$$$$$$$$$$$$$$                                 $$$$$$$$$XXXXX$",
"$$$$$$$$$$$$$$$$                                 $$$$$$$$$$$X$$$",
"$$$$$$$$$$$$$$$$                                 $$$$$$$$$$$$$$$",
"$$$$$$$$$$$$$$$$                                 $$$$$$$$$$$$$$$",
"$$$$$$$$$$$$$$$$            X                    $$$$$$$$$$$$$$$",
"$$$$$$$$$$$$$$$$            X                    $$$$$$$$$$$$$$$",
"$$$$$$$$$$$$$$$$        X  XXX  X                $$$$$$$$$$$$$$$",
"$$$$$$$$$$$$$$$$         XXXXXXX                 $$$$$$$$$$$$$$$",
"$$$$$$$$$$$$$$$$         XXXXXXX                 $$$$$$$$$$$$$$$",
"$$$$$$$$$$$$$$$$        XXXXXXXXX                $$$$$$$$$$$$$$$",
"$$$$$$$$$$$$$$$$      XXXXXXXXXXXXX              $$$$$$$$$$$$$$$",
"$$$$$$$$$$$$$$$$        XXXXXXXXX                $$$$$$$$$$$$$$$",
"$$$$$$$$$$$$$$$$        +XXXXXXX   ooo           $$$$$$$$$$$$$$$",
"$$$$$$$$$$$$$$$$        +XXXXXXX  ooooo          $$$$$$$$$$$$$$$",
"$$$$$$$$$$$$$$$$      +++++XXXooXooooooo         $$$$$$$$$$$$$$$",
"$$$$$$$$$$$$$$$$   + +++++++X+oo ooooooo         $$$$$$$$$$$$$$$",
"$$$$$$$$$$$$$$$$    +++++++++ooo#ooooooo##       $$$$$$$$$$$$$$$",
"$$$$$$$$$$$$$$$$   +++++++++++o###ooooo###       $$$$$$$$$$$$$$$",
"$$$$$$$$$$$$$$$$  +++++++++++++####ooo####       $$$$$$$$$$$$$$$",
"$$$$$$$$$$$$$$$$  +++++++++++++###########       $$$$$$$$$$$$$$$",
"$$$$$$$$$$$$$$$$+++++++++++++++++#########       $$$$$$$$$$$$$$$",
"$$$$$$$$$$$$$$$$  +++++++++++++###########       $$$$$$$$$$$$$$$",
"$$$$$$$$$$$$$$$$  +++++++++++++##+..######       $$$$$$$$$$$$$$$",
"$$$$$$$$$$$$$$$$   +++++++++++.##+..######       $$$$$$$$$$$$$$$",
"$$$$$$$$$$$$$$$$    +++++++++#+.+++#+#####       $$$$$$$$$$$$$$$",
"$$$$$$$$$$$$$$$$   + +++++++#+#+++++#####$       $$$$$$$$$$$$$$$",
"$$$$$$$$$$$$$$$$      +++++###+++++++###$$       $$$$$$$$$$$$$$$",
"$$$$$$$$$$$$$$$$       $+$##+++++++++++$$$       $$$$$$$$$$$$$$$",
"$$$$$$$$$$$$$$$$       $+$$###+++++++#$$$$       $$$$$$$$$$$$$$$",
"$$$$$$$$$$$$$$$$       $$$$$$#O+++++$$$$$$       $$$$$$$$$$+++++",
"$$$$$$$$$$$$$$$$       $$$$$OO+O+++O+$$$$$       $$$$$$$$$++++++",
"$$$$$$$$$$$$$$$$    X  $$$$$OOOOO+OOO$$$$$       $$$$$$$$+++++++",
"$$$$$$$$$$$$$$$$    X  $$$$OOOOOO+OOOO$$$$       $$$$$$$++++++++",
"$$$$$$$$$$$$$$$$  XXXXX$$$$OOOOOOOOOOO$$$$       $$$$$$$++++++++",
"$$$$$$$$$$$$$$$X XXXXXXX$XOOOOOOOOOOOOOO$$       $$$$$$$++++++++",
"$$$$$$$$$$$$$$$$XXXXXXXXX$$OOOOOOOOOOO$$$$       $$$$$$$++++++++",
"$$$$$$$$$$$$$$$XXXXXXXXXXX$OOOOOOOOOOO$$$$$$$$$$$$$$$$$$++++++++",
"$$$$$$$$$$$$$$XXXXXXXXXXXXX$OOOOOOOOO$$$$$$$$$$$$$$$$$$$$+++++++",
"$$$$$$$$$$$$$$XXXXXXXXXXXXX$OOOOOOOOO$$$$$$$$$$$$$$$$$$$$$++++++",
"$$$$$$$$$$$$XXXXXXXXXXXXXXXXX$OOOOO$$$$$$$$$$$$$$$$$$$$$$$$+++++",
"$$$$$$$$@$$$$$XXXXXXXXXXXXX$$$$$O$$$$$$$$$$$$$$$$$$$$$$$$$$$$$$$",
"$$$$$$$$$$$$$$XXXXXXXXXXXXX$$$$$O$$$$$$$$$$$$$$$$$$$$$$$$$$$$$$$",
"$$$$$$$$$$$$$$$XXXXXXXXXXX$$$$$$$$$$$$$$$$$$$$$$$$$$$$$$$$$$$$$$",
"$$$$$$$$$$$$$$$$XXXXXXXXX$$$$$$$$$$$$$$$$$$$$$$$$$$$$$$$$$$$$$$$",
"$$$$$$$$$$$$$$$X$XXXXXXX$X$$$$$$$$$$$$$$$$$$$$$$$$$$$$$$$$$$$$$$",
"$$$$$$$$$$$$$$$$$$XXXXX$$$$$$$$$$$$$$$$$$$$$$$$$$$$$$$$$$$$$$$$$",
"$$$$$$$$$$$$$$$$$$$$X$$$$$$$$$$$$$$$$$$$$$$$$$$$$$$$$$$$$$$$$$$$",
"$$$$$$$$$$$$$$$$$$$$X$$$$$$$$$$@$@$$$$$$$$$$$$$$$$$$$$$$$$$$$$$$",
"$$$$$$$$$$$$$$$$@$$$$$$$$$$$$$$$@$$$$$$$$$$$$$$$$$$$$$$$$$$$$$$$",
"$$$$$$$$$$$$$$$$$$$$$$$$$$$$$$$$$$$$$$$$$$$$$$$$$$$$$$$$$$$$$$$$",
"$$$$$$$$$$$$$$$$$$$$$$$$$$$$$$$$$$$$$$$$$$$$$$$$$$$$$$$$$$$$$$$$",
"$$$$+$$$+$$$$$$$$$$$$$$$$$$$$$$$$$$$$$$$$$$$$$$$$$$$$$$$$$$$$$$$",
"$$$+++$+++$$$$$$$$$$$$$$$$$$$$$$$$$$$$$$$$$$$$$$$$$$$$$$$$$$$$$$",
"$$+++++++++$$$$$$$$$$$$$$$$$$$$$$$$$$$$$$$$$$$$$$$$$$$$$$$$$$$$$",
"$$+++++++++$$$$$$$$$$$$$$$$$$$$$$$$$$$$$$$$$$$$$$$$$$$$$$$$$$$$$",
"$$+++++++++$$$$$$$$$$$$$$$$$$$$$$$$$$$$$$$$$$$$$$$$$$$$$$$$$$$$$"
};
