/* XPM */
static const char *arcade_cabinet[] = {
/* columns rows colors chars-per-pixel */
"64 64 40 1 ",
"  c gray10",
". c #1B1B1B",
"X c gray11",
"o c #1D1D1D",
"O c #1E1E1E",
"+ c gray12",
"@ c #202020",
"# c gray13",
"$ c #222222",
"% c #232323",
"& c gray14",
"* c #252525",
"= c gray15",
"- c #272727",
"; c #282828",
": c gray16",
"> c #2A2A2A",
", c gray17",
"< c #2C2C2C",
"1 c #2D2D2D",
"2 c gray18",
"3 c #2F2F2F",
"4 c gray19",
"5 c #313131",
"6 c #323232",
"7 c gray20",
"8 c #343434",
"9 c #353535",
"0 c gray21",
"q c #3C3C3C",
"w c #464646",
"e c #505050",
"r c #FF3232",
"t c #FF6464",
"y c #32FF32",
"u c #FFFF32",
"i c #FFFF64",
"p c #3232FF",
"a c #6464FF",
"s c #C8C8C8",
/* pixels */
"=@+=,=4@,=@=1=,4=1@@,+,,=@,@@=4,141=@@=11==@@,=@1,,,++=,,1141@@w",
"1=9,1,14=@1=14,,=4=,=@@@,4,=,@@,,,@@@1=@@,4@==4@@91@,ww1=,4@91w4",
"=,@4=4==19,14==,,,==,,4191===,4999=,==91949,4,911wwww44=144=9w11",
"49,1@91,41@@=19141@4=9194,4=94@=9==91=4,@,==99,ww4w91@,=4419ww41",
",4,191,@,4,,44441=4,=99944,1,9,91,441,44141,==419=9w,11,,19w1w4,",
",=@=4119,=,=,,1=,1,@4141,4441=,4,4=49@@=44,=9@,4@=@w1=4@491=w=@,",
"@,4,,@@41@@1,+=@,,,=4,,1,=@,4,41,,+4,=,=44+@,,=,1=,@w4@11@,1w@==",
"+,,+==,,=@,=,+=====111,1,,,11,1@,,1,=,@,,=+1,1=+1,,1==@1+=,w,+@=",
"=@11@11,1+=+ =@++=,,++1+@=+,+===,+,w,,,=1=1 ,++@=@ ==@=@@==w,1=w",
" =,=@+ ,+@,1 +@,+@,+,+ +,1,+=+@,@1@w, =+=,+1+@,,++@=+@ ,+@w,,,w ",
" ,=++=,1  ,,+=,=+ , + ,====+@+==,++w@=,  =,+++@ =+,=@@+,w ,,,w ,",
",=@@1,1,, @@+,w,@+@@=++11=,,@=,+@,@w+,,@,,,+++ +=@@1+=ww=@+1,+=1",
"141,@@,,,=@@+,w4,@11=+@,==@1@@,@,,w==@=,,,+@1,+1,@=,+w=1@+=,11==",
"=,11=@11,144==w,4@14,=@@,,1@,@=@4=w4==,,41=4,41@@==1w,44,@4=111=",
"=@4,@11@1==,4,1w=,,4===@,9,9=414@4w@4=,@=9991=,1=@4@w9,94,111141",
"4,=9=,1===,,=,1w,=1=991=4,=,,==,91=94@9@==19=@9=44,49w,,14@,=991",
"1,199=@9,,1,1==w4==44449,@1=11144@4@,14=44==,=1,,=@@41w=4,=,,19=",
",14111,1===441,=19@,4@@,4=,4,44@4144,,=441@@@,,,44,@11@w114991=1",
"@@,1,,4,==4@4,,@@,=,9=91=9=14=1@11=911=99=,=,194=@4,14==w4,====@",
",4@41@=4@41144,,11wwwwwww++=4,=@=+@=11@=@@1+,,=,,,1,4@@,=1411@@=",
"11,@=@1=@1++++1,1=,+,==1+==,,,+,+,+1=@,=+=+,=,=,=1=@1@,+,1=1++@@",
"+,1==1=1 ,,,,+,+,=,,,,===1,+===, @=++++@+,@@,++1,+,,+=,,+,  =,=@",
"1,=@=,= 11 1++=,,,@,@ 1@=@+= 1,@=,=+1++ @,@=+,1 , +@,+1,==1,@ ,=",
" @,@= =,+,++@+1 @ +@=++=+,++==@@11+,,=,,===,+=,= @=@+= @ ,=,+===",
",=1@,,1+1=1,@@,,@,+==@,+@,,1++@=1=@@++,1+,++1,@1@@==@=+@@,11+=,,",
"=,=@==,4@4@@@1=1,=++=1=@,=,==+1@4+414@,,,=+==1111=@,4+,+@,=,@+1,",
"4141@,11=@4444@9@,4ww41=4@,@9@1,44,,4@41,@411=4@4,==,=,94,1=,1,1",
"41=,,@=9,9==,,1=,,9414944,49=911,1444944149@,4=9949=4,1,==@,44=,",
"=,9=9,1,911,144919,19,9=,,=49,1,11,1,9@111149,=1=19,,1@1=4=1=,14",
"=,=41=4,,=1=94,1,=,9==49,,,9=11@@49=w41=,=,94=1=,9=444,1,11,91=9",
"==,=4=9@,=94@14,11,=@,1w=1994,411=,,9ww=41==@4@===494=@1,=,,4=@1",
",1@@,@,41,,=@,=@4,,1@,@w=1@,4,4,1==44=@ww4=,411@==@44=1@4414,,44",
"+=1+@,@,+=,@+=4=11,+==@w+,,,++,1@,+41=@4=@@1=,,,=4,+4=,@+@1,,1=4",
",@@11,=,w=,,@,@,@= 11+1w==@+==@,+,1,@+=@,==++=+@1+,++@=+@+=,+1++",
"@+@=,=,=,w,,=@=,++,,++=w+@@=@@,,,@+=+@=,+,+=,=,==,1@= =+=+ +===@",
",=++=,+,@@w,1,+,,,@++=,=+,@+1+@,1@ @+1@,= @=++,+ @+= ,+=+@@++=,@",
",@++, =,=,@w+@@,=1,@11=,=1@1,@+,@+@@@,@11@=+==,+@1,,1@1111 @=+,,",
"1+,,@4=,,1+@1,4+,1,1=,,,@@11,=++,@,,=1,@=@4+1+4@,1,,,=@,1@,+1,@=",
"1@,@,@=@==+,+1,@1@@@,41@11=,4@==@=1,44@44=4=@1@@@,===1@=41+=1,=@",
",==1,,,11@=w1,114,1,=4@1,=44@1=9@449,=4,==,,,41,9,,4@919=@,@494,",
"94,,,91,,,,w,=4,91qqq1,1,41@9,@1,,1,=91=,,1114@19@4,41,4,=1==44=",
"9,4w=,4141,w9=,,44qqq19,,,,,144,444,,114,444=,=494@,=114=@4,11,,",
"44=9w,4,14w491114=1qqeeew,,=14,,,414=,,9,=,111==,1419,,==944@=41",
"==1@114=@1w@=,===,eqqq++w9=4www9=44=@@,,@111,,@491,,4@,41,4,1=,w",
"+1=11,=4@,w1,,@==e+qqq+++w=1=,1wwwwsss,1=@11@ssw,+=+,,@sss=1+,w1",
"1,===1,@=,1++@,,e++qqq+++we++=,,1sswwrss=,1sspppws,==ssuuuss,1ws",
",=== @, = , ,,,e++++qq++++we@ @@+srtrrrs+,=spappws==@suiuuus1w=s",
"1+,@@ +1, +@++=e++++qqq++++e,@, srwttrrrs+spaaappwswsuiiiuuus=sy",
",=+@, +@=,,,  @e++++qqq++++e,  1swrtrrrrs@sppapppww+suuiuuuus=sy",
"1@,,@,=1=+=+@@=e+w+++++++www@@1+wrrrrrrrs,spppppppw1suuuuuuus+sy",
"+@=,11+@ww=,=,+e++w++++++++e14,@1srrrrrs=1,spppppw,,=suuuuus,=1s",
",4=,,@ww=@,1414@e+w+++++++e@1,1==ssrrrss@@,sspppws,@4ssuuuss@@4s",
",44=ww=,9,=,@4=,9e+w+++++e4=@14,4,4sss,,141=1ssw9@,4,=1sss49,111",
"=,1w1==41=1,4,,9,4e+w+++ew191,9,9=,,14@19419@44w199=491491@11=4@",
"94,,4111114==4191,,eewee9w,994wwww49,4999=,,,4w,441=,,,1,9,19==9",
",4@,1,,@=9=1,19@@4@41w,4w4=44=9@4,1,,11,=,44449@,4=91=11,1=,=,,=",
"4144=@,@41=,,,@41==1,@w1w,,44,=1=11@1=,111,,4,=,,,44=w44=41==@41",
",++1414=,@@1@+,@=1,,=@1+1,1@1@+,1==@,1=@1+@+,+@,1=@++w,=,===1444",
"++@,@,,= 1=,@1+,==@++,==,,1,+@@+,=@ +,1+,@===1++@==+,w1 =+1@, +,",
"1@,,=@@11= +1+=@11=@= =+=,@+=,,,,=, ,,11 ==, @,,+,+ =w@== ,,@@,,",
"@+,+@,@= 1,@@,@,+1,+ ===,+,,,@ ,@@+=,+ 11=+=w+== ,,1=w+@@=,=,@@1",
"@+1+=@,@+++=+@+,=,@@@,@+1@@,@@,1, ,,=++111@ w@@@,+@,+w==www+11=@",
",++++++,@,++=@+===,@1,=,1==@@+1=1+++11= ,+1+w+,+@=11@w=1+@+===,,",
"@4+,=,14=4+,1@@11@1,=,=4=,1=11=4=1,1411@41=1w141@=@,=w114@1,@,,,"
};
