/* XPM */
static const char *ceiling[] = {
/* columns rows colors chars-per-pixel */
"64 64 92 1 ",
"  c #0A0A14",
". c #0B0B15",
"X c #0C0C16",
"o c #0D0D17",
"O c #0E0E18",
"+ c #0F0F19",
"@ c #10101A",
"# c #11111B",
"$ c #12121C",
"% c #13131D",
"& c #14141E",
"* c #15151F",
"= c #161620",
"- c #171721",
"; c #181822",
": c #191923",
"> c #1A1A24",
", c #1B1B25",
"< c #1C1C26",
"1 c #1D1D27",
"2 c #1E1E28",
"3 c #232333",
"4 c #262636",
"5 c #262638",
"6 c #282839",
"7 c #2B2B3C",
"8 c #2E2E3D",
"9 c #313140",
"0 c #303042",
"q c #343443",
"w c #323244",
"e c #363648",
"r c #3A3A4C",
"t c #67676E",
"y c #676776",
"u c #6D6D74",
"i c #6F6F76",
"p c #69697E",
"a c #646483",
"s c #707085",
"d c #666695",
"f c #6F6F94",
"g c #6A6A9F",
"h c #7C7C91",
"j c #7F7FA0",
"k c #7D7DA7",
"l c #868686",
"z c #8C8C94",
"x c #91919B",
"c c #96969B",
"v c #90909F",
"b c #8181AC",
"n c #9595A1",
"m c #9797A3",
"M c #9494AF",
"N c #8B8BB1",
"B c #8A8AB7",
"V c #9191B7",
"C c #9494B7",
"Z c #9595B8",
"A c #9090BD",
"S c #A7A7AE",
"D c #ACACAE",
"F c #A4A4B1",
"G c #A2A2B8",
"H c #A2A2B9",
"J c #ADADBE",
"K c #B2B2BD",
"L c #9191C2",
"P c #9494CA",
"I c #9999C8",
"U c #9E9ED2",
"Y c #ACACC5",
"T c #ADADCF",
"R c #B3B3C1",
"E c #B1B1CA",
"W c #A1A1D5",
"Q c #AFAFD3",
"! c #AFAFD4",
"~ c #A6A6DD",
"^ c #A9A9DD",
"/ c #B4B4DB",
"( c #BBBBE3",
") c #BBBBEB",
"_ c #C1C1CD",
"` c #C2C2CE",
"' c #C7C7CE",
"] c #C7C7D5",
"[ c #C3C3E1",
"{ c #C0C0F3",
"} c #C5C5FF",
"| c #E3E3FF",
/* pixels */
"&&&&&&&&&&&&:&&&&=&&&&&<&&&&&&&&&&&&&&&&&&&&&&&&&&&&&&<&.&&&&&&&",
"&&&&&&&&&&&.&&&&&&&&&+%&&&&&&&zX&&&&&=&&&&&&&X&&&&&&&&&&,&&&&&&&",
"&&&&&&&&&&&&,&&&,.&&&&&&2&%&&&&&&&&&&&&&&&&&&&&X&&&&%&&&@&&&&&&&",
"&&&&&&&&&=&&&&&&&&&&&&&&&&&&&&&&&&&&&&&&&.&&&&&&&N&&<&&&&.&&&&&&",
"&&&&&%&y&&&&&&&&&&&&&&&&2&&&&&&&&+&v&&&&&&&.,&&&&&&<&&&&&&&&c&&&",
"&&&&&.&&.@&&X&&&@&&&&&&&&&&&&&,&&Xvvv&&&&&&&&&&&K&&&&&&&x&:&&@&&",
"&+&&&&&&&+&&&&&&&&&&X&Q&&&&&&&&&&&&v&&&&&&=&&&&&X&&&&&&&&&&&&&&&",
"&&&&&&&&&&&&&&&&&&&&&&&&&&&&&&&&&&&&&&&&&&&&&&&&&&&&&&X&&&X&&&&&",
"&<&&&&&&&&&&&&.&&&&@&&&&&&&&&&X&&&&&&&&&&&&&&&&&&&&,&&&&&=&&&&&&",
"&&<&&&&&&&&&&&&&&&&&&&&&&&&&&&&&&&&&&&&&&+&X&&@&&,&&&&:&&&&&&@&&",
"&&&&&&&&&&&&&&&&&&&&&g&+%&&,+&&&X&&&&&&&&&&&&&&@&&&&&&&&%&&&&&&&",
"&&&&&&,&&&&&&&&&%&&&&&&&&&&&.&&&&&&&&&&&&&&+&&&&&&&&&&&&&<+&&&&&",
"&&&&&&&&&J&&&&&=&&&&&&=&&&&&&&&&&&&&&&%&<44444&&&&&&&&&&&&&&&&&&",
"&&&&&!&&&&&&&&&&2&&&&&&&&&&&&&&+&&<&&&&=&4&b&4&&&&&&&&&&&&&&&&@&",
"&&&@&&&&&&&&&&&&&&F&&&&&&&&&&:&&&+&&.&&&&4bfb4&&&&&&&&&&&&&+&&&&",
"&&&&&&&&&&%&&&&&&FFF&&&&&&&&&&&&&&&l&&&&&4@b&4&&&&&&&&&=&&&&&&&X",
"&@X&&&&&&&&&&&&&&&F&&&&&.&&&&&&&&&lll%&&&44344&&&&&&&&&&&2&&&&&&",
"&&&&&&&&&&&&=&&&&&&&&&&&.&&&&&&&&<&l&&&&&&&&&&&&&&&&&j&&&&X&&&&M",
"&&&&&&&&&&&&&&&&&&&&&&&Z&&&&&&%&&&&&&&&&&&&&&<&&&&&&&&&&,&&&&&&&",
"&&&&&&&p&&&&&&&&&=&&&&&&&&&&&&&&&&&&&&&&&&+&&&&)&&&&&&&&&&&&&&&&",
"&&&&&&&&&+&&&++&&&.&&&&&&&&&&&&&&<&&&&&&&&&&&&&&&&%&:&&&&&&&&&&&",
"&&&&50000&&&&&&&&&+&<&&&&&&&&&&&&&&&&&&<&&&&&&&i&&&&&&&&&&&&&&&&",
"&&&&r&}&0&&&&&&+&&+&&&&&&&&&&&&&&.&&&&&&&&&&&&itt&&&&&@&&+&&&&&&",
"&&&&0}^}0&&&&.&&&&&&&&&&&&&&&X&&&&&&:&&&&&&&&&&t&@&&&&%&&,&@&&&&",
"&&&&w&}&0=&&&&&&&&&@&&&&&&:&&+&&&<&.&&&&&&&&&&&&&&&&&&&&&+&&&&&&",
"&.&&0e000&&:&&&&&&<&&&{&&&&&+&&&&&&&&%&&+&&&&&&&D&&&&&&&&&&&&&&&",
"=&&&&&&&&&&%&&&&&&&&&&&&&&&&&&&&&&&,&&&&&&&&&&.&&&&@&&&&&&&&&&&V",
"&&&&&&&&&&&&&&&&&&&&&&&&&&&&&&&&%&&&&&&&&&=&&&@&&&&&&&&&&.&&&&VV",
"&&.&+&&&&&&&&&&&:&&&&&&&&+&&&&&&&&&%&&&&&&&&<&&&&&&&&&&Y:&&&&&&V",
"&&&&&&&&&&&,&&&&&&&&&&&&&&&&&&m&:&&&&&&&&&&&:&&&&&&&&&YEY&&&&&%&",
"&&&&&&&&&&&=&&&&&%&&&&&X&&&&&mmm&+&&&&&&&2&&&&&&&&&&&=&Y@&&&&<&<",
"&&&X&&&&&&&@&&&&&&&&&&&&&&&&&&m&&+&&&&&&&&&&&&&&&&&&&&&&&&&&&&&&",
"&&&&&&&&+&&&&&&&%&&&=%&&&,&&X%<&&&&&&&&&&&=&&&&&&&&&&&&&&&=&&&&&",
"&&+&&&&&&&&+&&&&&&&&&&&&&&&<&&&%L&&&&&&&&&&&2&&&%&&&&&X&&&&&&&&@",
"&&&&&&&&X&&&&XX<&&.&&&k&&&&&&&&&&&&&&&@&&&&&&+&,&&&&&&@&&&&&&&&&",
"&&&&77677&&&&&&&_&&&&&+&&&&&&&&&&%&&&&&&&&&&&&&&&&&&&&&&&&&&&&&&",
"%&&&7&W&7&&&<&&&&&&&=&&&&&&&&&&&&&&&&,&&h&&&&&+&&,&&<.&&&&,&&&&&",
"&&&&7WBU7&@&&&&&&&&&&&&&&&&&&&&&&&&&&&&&:%&&&&&&&,&&&&&&&&&&&&&&",
"&&&,7%W&7&&&&&&.&&&&&&&&%&&&&&&GI&&&&&&&&/&&&&&&&&&&&&&&&&&&&'_&",
"&S&&77777&&&&&&&&&&C&&&&,&&&=&<&X&&%&&&&X&&&&&&&&&&&,&&&&&&&'___",
"&&&&&&&&&&&&&&&&&&&&&&&&&&&%&&&:&&&&&&&&&&&&&&&&&d&&%&&&&&&&&'_&",
"G&&&&&&&&&&&&&&&&@&&&&&&&&&&,~&&&&&&&&.&&&&&&+&&&&&.&&&&&X&&&&&&",
"&&&&&+&&&=&&&&&&&&&&&&&&&&&&&,=&&&&&+a&&&&&&&&&&&&.&&&&&&&&&&%&&",
"&&&&&&&&+&&&&&&&&&&&&&&&:&&&&&&&&&&&&&&&&&&.&&&&&&&&&&&&&&&&&&&&",
"&&&&&&&&&&&&&&&&&&&&&&&&,&&&&&&&&&&&&&&&&&&,&&&&&&&&&&&&&&&&&@&&",
"&&&&&&&&@&&&&&&&&&&&&&&&&&&&&&&&&&&&&&%&&&&&&&&&&&&&&@&&+&&&&X&&",
"&&&&&+&T&&&&&2&&&&&&&&&&&&&&&&&&&&&:&&&&&&&&&&&&&&&&&&&&&&&&&&&&",
"&&&&&&&&&&&&&:&&&&&&&&&&&&&&&&&&&&&&&&&&&&&&&&&&&&&&&&&&&&&&&&&&",
"&&&&&&&&,@&&&&&&&&&&&&&&&&&&&&+&&&&,+&&&&&&X&&s&=&&&&&&&&&R&&&&&",
"&&&&&:&&&&&&&&&&&+&&&+&&&&&&&%X&&&&&&&&&++&&&&@&&&XX&<&&&&&&+&&&",
"&&&&&&&&&&&%&&&&&&&&&&&&&&&&&&&&&&&&&&&&&&&&&&&&&&&&&&&&.&&&&&&&",
"&&&&&&&&&&&&&&&&&&&&&&&&&&&&&&&&&&&&&@&&&&&&&&&&&&&&&&&&&&&&+&&&",
"&&&(+=&&&&&&&&&&+&&&&&&&&&&&&&&&&&@&&&&&,&+&&&&&&&&&&&&&&&&&&+&&",
"&&&&&&&&&&&,&&&&&:&&&+&&&&&&&&&&&&&&&&&&&&&&&&&&&&&&&&,&&&&&&&&&",
"&&&&&&&&&&&&&&&]&&&&&&&&&<&&&&&<&&&&&&&&&&&&&&&&&&&&&&&&&&&&&&&&",
"&&&&&&&&<&&&&&&&&&&&&&&&&&&&&&&&&&.&&&&&&&&&&&&&&&&&&&&&&&&&&&&&",
"&&+&&&&&&&&&&&&&&&&&&&&=&&&&&&&&&&&&&X&&&&&&,.&&&&&&&&&&&&&&&&&&",
"&&&&&@.+&&&&&&&&&&&&&&&&&&&&&&&&&<,&&&,.&&&&&%&&&&&&&&&&&&&&&&&&",
"&&&&&&,&&&&=&&&&&&&&&+&&&&&&&&&&&&:&&&&&&&&&&&&&&&&+@&&&&&<&&&&&",
"&&&&&&&&&&&&&&&&&&&&.&&&&&&&&&@&&&&<&&&&&&&&&&&&&&&&&&&&&&&&&&&.",
"&&&&&&&&&&&qqqq0&&+&&&&&&&&&&&&&&&&.&&X&&&&&&&&&&&&&&&&&&&&&&&&&",
"&&&&&&&&&&&q&|&8:&XX&&&&&&P&&&&&&&&&&&&&&&%,&&&&&&&&&&&&&&&X&&&&",
"&&A&&&X&&&&q|[|q&&<&&&&&&PPP:&.&&&&&&&&&&&&&&&&&&&&&&&&&&&&&&&&&",
"&&=&&&&&&&&q+|&q&&&=&&&&&&P&&&&&&&&&&&&&&&&&&&&&&&&&&<&&&&&&&&&&"
};
