/* XPM */
static const char *crt_screen[] = {
/* columns rows colors chars-per-pixel */
"64 64 115 2 ",
"   c black",
".  c #000100",
"X  c #000300",
"o  c #000400",
"O  c #000600",
"+  c #000700",
"@  c #000800",
"#  c #000900",
"$  c #000C00",
"%  c #000D00",
"&  c #000E00",
"*  c #000F00",
"=  c #001000",
"-  c #001100",
";  c #001200",
":  c #001300",
">  c #001600",
",  c #001700",
"<  c #001800",
"1  c #001A00",
"2  c #001B00",
"3  c #001D00",
"4  c #001E00",
"5  c #001F00",
"6  c #002200",
"7  c #002500",
"8  c #002600",
"9  c #002700",
"0  c #002C00",
"q  c #002D00",
"w  c #002E00",
"e  c #002F00",
"r  c #003100",
"t  c #003300",
"y  c #003400",
"u  c #003600",
"i  c #003700",
"p  c #003900",
"a  c #003A00",
"s  c #003B00",
"d  c #003E00",
"f  c #003F00",
"g  c #004100",
"h  c #004200",
"j  c #004600",
"k  c #004900",
"l  c #004A00",
"z  c #004C00",
"x  c #004D00",
"c  c #004F00",
"v  c #005100",
"b  c #005200",
"n  c #005300",
"m  c #005400",
"M  c #005600",
"N  c #005700",
"B  c #005C00",
"V  c #005D00",
"C  c #005F00",
"Z  c #006100",
"A  c DarkGreen",
"S  c #006500",
"D  c #006600",
"F  c #006700",
"G  c #006900",
"H  c #006C00",
"J  c #006D00",
"K  c #006F00",
"L  c #007000",
"P  c #007100",
"I  c #007200",
"U  c #007300",
"Y  c #007400",
"T  c #007500",
"R  c #007600",
"E  c #007700",
"W  c #007800",
"Q  c #007C00",
"!  c #007D00",
"~  c #007E00",
"^  c #007F00",
"/  c #008500",
"(  c #008700",
")  c #008D00",
"_  c #009200",
"`  c #009300",
"'  c #009600",
"]  c #009800",
"[  c #009E00",
"{  c #00A300",
"}  c #00A700",
"|  c #00AA00",
" . c #00AC00",
".. c #00AF00",
"X. c #00B200",
"o. c #00B400",
"O. c #00BA00",
"+. c #00BB00",
"@. c #00C400",
"#. c #00C600",
"$. c #00C700",
"%. c #00CA00",
"&. c #00CC00",
"*. c #00D600",
"=. c #00D800",
"-. c #00DC00",
";. c #00DE00",
":. c #00DF00",
">. c #00E500",
",. c #00E800",
"<. c #00F000",
"1. c #00F100",
"2. c #00FA00",
"3. c #00FD00",
"4. c green",
/* pixels */
"                                                                                                                                ",
"                                                  @ ; > 4   8 8 8 8 8                                                           ",
"                                            +   ; > < 4 6   8 8 8 8 8               +                                           ",
"                                      @ < 8 y   z M C D H   R R R R R               y 8 < @                                     ",
"                                    % > 4 8 q   a f h j l   z z z z z               q 8 4 > %                                   ",
"                                    f v Z P ^   ] {  .o.+.  #.#.#.#.#.              ^ P Z v f   <                               ",
"                                    r a h l v   C D G H P   R R R R R               v l h a r   4 ; +                           ",
"                                                                                                                                ",
"                                    v C D H R               ^ ^ ^ ^ ^               R H D C v                                   ",
"                                    %.;.1.4.4.              4.4.4.4.4.              4.4.1.;.%.              +                   ",
"                                    R ^ ^ ^ ^               ^ ^ ^ ^ ^               ^ ^ ^ ^ R               ;                   ",
"                                    4.4.4.4.4.              4.4.4.4.4.              4.4.4.4.4.              f 6 +               ",
"                                    ^ ^ ^ ^ ^               ^ ^ ^ ^ ^               ^ ^ ^ ^ ^               q 4 %               ",
"                                    4.4.4.4.4.              4.4.4.4.4.              4.4.4.4.4.              R M y >             ",
"                                    ^ ^ ^ ^ ^               ^ ^ ^ ^ ^               ^ ^ ^ ^ ^               j y 8 > +           ",
"                                                                                                                                ",
"            4 q f z C   ^ ^ ^ ^ ^   ^ ^ ^ ^ ^   ^ ^ ^ ^ ^                           ^ ^ ^ ^ ^   ^ ^ ^ ^ ^   C z f q 4           ",
"            z P ` o.*.  4.4.4.4.4.  4.4.4.4.4.  4.4.4.4.4.                          4.4.4.4.4.  4.4.4.4.4.  *.o.` P z   @       ",
"            r h v D R   ^ ^ ^ ^ ^   ^ ^ ^ ^ ^   ^ ^ ^ ^ ^                           ^ ^ ^ ^ ^   ^ ^ ^ ^ ^   R D v h r   %       ",
"            R ] +.;.4.  4.4.4.4.4.  4.4.4.4.4.  4.4.4.4.4.                          4.4.4.4.4.  4.4.4.4.4.  4.;.+.] R   q @     ",
"            h M D W ^   ^ ^ ^ ^ ^   ^ ^ ^ ^ ^   ^ ^ ^ ^ ^                           ^ ^ ^ ^ ^   ^ ^ ^ ^ ^   ^ W D M h   4 %     ",
"            ' +.;.4.4.  4.4.4.4.4.  4.4.4.4.4.  4.4.4.4.4.                          4.4.4.4.4.  4.4.4.4.4.  4.4.;.+.'   z 8     ",
"            v D R ^ ^   ^ ^ ^ ^ ^   ^ ^ ^ ^ ^   ^ ^ ^ ^ ^                           ^ ^ ^ ^ ^   ^ ^ ^ ^ ^   ^ ^ R D v   q < +   ",
"                                                                                                                                ",
"    ; 8 a   C P ^ ^ ^               ^ ^ ^ ^ ^   ^ ^ ^ ^ ^   ^ ^ ^ ^ ^   ^ ^ ^ ^ ^               ^ ^ ^ ^ ^   ^ ^ ^ P C   a 8 ;   ",
"  @ q M ^   %.1.4.4.4.              4.4.4.4.4.  4.4.4.4.4.  4.4.4.4.4.  4.4.4.4.4.              4.4.4.4.4.  4.4.4.1.%.  ^ M q @ ",
"  @ < q h   G ^ ^ ^ ^               ^ ^ ^ ^ ^   ^ ^ ^ ^ ^   ^ ^ ^ ^ ^   ^ ^ ^ ^ ^               ^ ^ ^ ^ ^   ^ ^ ^ ^ G   h q < @ ",
"  > f D )   ;.4.4.4.4.              4.4.4.4.4.  4.4.4.4.4.  4.4.4.4.4.  4.4.4.4.4.              4.4.4.4.4.  4.4.4.4.;.  ) D f > ",
"  % 6 y l   P ^ ^ ^ ^               ^ ^ ^ ^ ^   ^ ^ ^ ^ ^   ^ ^ ^ ^ ^   ^ ^ ^ ^ ^               ^ ^ ^ ^ ^   ^ ^ ^ ^ P   l y 6 % ",
"  6 l P ]   ,.4.4.4.4.              4.4.4.4.4.  4.4.4.4.4.  4.4.4.4.4.  4.4.4.4.4.              4.4.4.4.4.  4.4.4.4.,.  ] P l 6 ",
"  ; 8 a z   R ^ ^ ^ ^               ^ ^ ^ ^ ^   ^ ^ ^ ^ ^   ^ ^ ^ ^ ^   ^ ^ ^ ^ ^               ^ ^ ^ ^ ^   ^ ^ ^ ^ R   z a 8 ; ",
"                                                                                                                                ",
"  ; 8 a z               ^ ^ ^ ^ ^   ^ ^ ^ ^ ^   ^ ^ ^ ^ ^               ^ ^ ^ ^ ^   ^ ^ ^ ^ ^   ^ ^ ^ ^ ^               z a 8 ; ",
"  8 z R [               4.4.4.4.4.  4.4.4.4.4.  4.4.4.4.4.              4.4.4.4.4.  4.4.4.4.4.  4.4.4.4.4.              [ R z 8 ",
"  ; 8 a z               ^ ^ ^ ^ ^   ^ ^ ^ ^ ^   ^ ^ ^ ^ ^               ^ ^ ^ ^ ^   ^ ^ ^ ^ ^   ^ ^ ^ ^ ^               z a 8 ; ",
"  6 l P ]               4.4.4.4.4.  4.4.4.4.4.  4.4.4.4.4.              4.4.4.4.4.  4.4.4.4.4.  4.4.4.4.4.              ] P l 6 ",
"  % 6 y l               ^ ^ ^ ^ ^   ^ ^ ^ ^ ^   ^ ^ ^ ^ ^               ^ ^ ^ ^ ^   ^ ^ ^ ^ ^   ^ ^ ^ ^ ^               l y 6 % ",
"  > f D )               4.4.4.4.4.  4.4.4.4.4.  4.4.4.4.4.              4.4.4.4.4.  4.4.4.4.4.  4.4.4.4.4.              ) D f > ",
"  @ < q h               ^ ^ ^ ^ ^   ^ ^ ^ ^ ^   ^ ^ ^ ^ ^               ^ ^ ^ ^ ^   ^ ^ ^ ^ ^   ^ ^ ^ ^ ^               h q < @ ",
"                                                                                                                                ",
"            C P ^ ^ ^               ^ ^ ^ ^ ^   ^ ^ ^ ^ ^   ^ ^ ^ ^ ^   ^ ^ ^ ^ ^   ^ ^ ^ ^ ^   ^ ^ ^ ^ ^   ^ ^ ^ P C   a 8 ;   ",
"            X.=.4.4.4.              4.4.4.4.4.  4.4.4.4.4.  4.4.4.4.4.  4.4.4.4.4.  4.4.4.4.4.  4.4.4.4.4.  4.4.4.=.X.  D h <   ",
"            v D R ^ ^               ^ ^ ^ ^ ^   ^ ^ ^ ^ ^   ^ ^ ^ ^ ^   ^ ^ ^ ^ ^   ^ ^ ^ ^ ^   ^ ^ ^ ^ ^   ^ ^ R D v   q < +   ",
"            ' +.;.4.4.              4.4.4.4.4.  4.4.4.4.4.  4.4.4.4.4.  4.4.4.4.4.  4.4.4.4.4.  4.4.4.4.4.  4.4.;.+.'   z 8     ",
"            h M D W ^               ^ ^ ^ ^ ^   ^ ^ ^ ^ ^   ^ ^ ^ ^ ^   ^ ^ ^ ^ ^   ^ ^ ^ ^ ^   ^ ^ ^ ^ ^   ^ W D M h   4 %     ",
"            R ] +.;.4.              4.4.4.4.4.  4.4.4.4.4.  4.4.4.4.4.  4.4.4.4.4.  4.4.4.4.4.  4.4.4.4.4.  4.;.+.] R   q @     ",
"            r h v D R               ^ ^ ^ ^ ^   ^ ^ ^ ^ ^   ^ ^ ^ ^ ^   ^ ^ ^ ^ ^   ^ ^ ^ ^ ^   ^ ^ ^ ^ ^   R D v h r   %       ",
"                                                                                                                                ",
"            4 q f z C   ^ ^ ^ ^ ^   ^ ^ ^ ^ ^   ^ ^ ^ ^ ^                           ^ ^ ^ ^ ^               C z f q 4           ",
"            8 j D ( }   >.4.4.4.4.  4.4.4.4.4.  4.4.4.4.4.                          4.4.4.4.4.              } ( D j 8           ",
"            + > 8 y j   D P ^ ^ ^   ^ ^ ^ ^ ^   ^ ^ ^ ^ ^                           ^ ^ ^ ^ ^               j y 8 > +           ",
"              > y M R    .&.,.4.4.  4.4.4.4.4.  4.4.4.4.4.                          4.4.4.4.4.              R M y >             ",
"                % 4 q   l M D P ^   ^ ^ ^ ^ ^   ^ ^ ^ ^ ^                           ^ ^ ^ ^ ^               q 4 %               ",
"                + 6 f   R `  .#.;.  4.4.4.4.4.  4.4.4.4.4.                          4.4.4.4.4.              f 6 +               ",
"                    ;   q a j v C   R ^ ^ ^ ^   ^ ^ ^ ^ ^                           ^ ^ ^ ^ R               ;                   ",
"                                                                                                                                ",
"                                    v C D H R   ^ ^ ^ ^ ^   ^ ^ ^ ^ ^   ^ ^ ^ ^ ^   R H D C v   f r 8 < %                       ",
"                                    ( ] | +.%.  >.1.2.4.4.  4.4.4.4.4.  4.4.2.1.>.  %.+.| ] (   C j q >                         ",
"                                    r a h l v   C D G H P   R R R R R   P H G D C   v l h a r   4 ; +                           ",
"                                    f v Z P ^   ] {  .o.+.  #.#.#.#.#.  +.o. .{ ]   ^ P Z v f   <                               ",
"                                    % > 4 8 q   a f h j l   z z z z z   l j h f a   q 8 4 > %                                   ",
"                                      @ < 8 y   z M C D H   R R R R R   H D C M z   y 8 < @                                     ",
"                                            +   ; > < 4 6   8 8 8 8 8   6 4 < > ;   +                                           ",
"                                                                                                                                "
};
