/* XPM */
static const char *cute_maze_wall[] = {
/* columns rows colors chars-per-pixel */
"64 64 5 1 ",
"  c #FFC864",
". c #6478E6",
"X c #C864FF",
"o c #64B4FF",
"O c #E6F0FF",
/* pixels */
"OOOOOOO...OOOOOOOOOOOOOOOOOOOOO...OOOOOOOOOOOOOOOOOOOOO...OOOOOO",
"OOOOOOO...OOOOOOOOOOOOOOOOOOOOO...OOOOOOOOOOOOOOOOOOOOO...OOOOOO",
"OOOOOOO...OOOOOOOOOOOOOOOOOOOOO...OOOOOOOOOOOOOOOOOOOOO...OOOOOO",
"OOOOOOO...OOOOOOOOOOOOOOOOOOOOO...OOOOOOOOOOOOOOOOOOOOO...OOOOOO",
"OOOOOOO...OOOOOOOOOOOOOOOOOOOOO...OOOOOOOOOOOOOOOOOOOOO...OOOOOO",
"OOOOOOO...OOOOOOOOOOOOOOOOOOOOO...OOOOOOOOOOOOOOOOOOOOO...OOOOOO",
"OOOOOOO...OOOOOOOOOOOOOOOOOOOOO...OOOOOOOOOOOOOOOOOOOOO...OOOOOO",
"OOOOOOO..................OOOOOO..................OOOOOO.........",
"OOOOOOO..................OOOOOO..................OOOOOO.........",
"OOOOOOOO.................OOOOOOO.................OOOOOOO........",
"OOOOOOOOOOOOOOO...OOOOOOOOOOOOOOOOOOOOO...OOOOOOOOOOOOOOOOOOOOOO",
"OOOOOOOOOOOOOOO...OOOOOOOOOOOOOOOOOOOOO...OOOOOOOOOOOOOOOOOOOOOO",
"OOOOOOOOOOOOOOO...OOOOOOOOOOOOOOOOOOOOO...OOOOOOOOOOOOOOOOOOOOOO",
"OOOOOOOOOOOOOOO...OOOOOOOOOOOOOOOOOOOOO...OOOOOOOOOOOOOOOOOOOOOO",
"OOOOOOOOOOOOOOO...OOOOOOOOOOOOOOOOOOOOO...OOOOOOOOOOOOOOOOOOOOOO",
"..................OOOOOO..................OOOOOO................",
"..................OOOOO...................OOOOO.................",
".................OOOOOO..................OOOOOO.................",
"OOOOOOOOOOOOOOOOOOOOOOO...OOOOOOOOOOOOOOOOOOOOO...OOOOOOOOOOOOOO",
"OOOOOOOOOOOOOOOOOOOOOOO...OOOOOOOOOOOOOOOOOOOOO...OOOOOOOOOOOOOO",
"OOOOOOOOOOOOOOOOOOOOOOO...OOOOOOOOOOOOOOOOOOOOO...OOOOOOOOOOOOOO",
"OOOOOOOOOOOOOOOOOOOOOOO...OOOOOOOOOOOOOOOOOOOOO...OOOOOOOOOOOOOO",
"OOOOOOOOOOOOOOOOOOOOOOO...OOOOOOOOOOOOOO OOOOOO...OOOOOOOOOOOOOO",
".........OOOOOOO.......XXX.......OOOOO   ................OOOOOOO",
"..........OOOOOO.......XXX........OOOOOO    ..............OOOOOO",
"..........OOOOOO.......XXX........OOOO   .................OOOOOO",
"OOOOOOO...OOOOOOOOOOOOOOOOOOOOO...OOOOOO OOOOOOOOOOOOOO...OOOOOO",
"OOOOOOO...OOOOOOOOOOOOOOOOOOOOO...OOOOOOOOOOOOOOOOOOOOO...OOOOOO",
"OOOOOOO...OOOOOOOOOOOOOOOOOOOOO...OOOOOOOOOOOOOOOOOOOOO...OOOOOO",
"OOOOOOO...OOOOOOOOOOOOOOOOOOOOO...OOOOOOOOOOOOOOOOOOOOO...OOOOOO",
"OOOOOOO...OOOOOOOOOOOOOOOOOOOOO...OOOOOOOOOOOOOOOOOOOOO...OOOOOO",
"OOOOOOO..................OOOOOO..................OOOOOO.........",
"OOOOOOO..................OOOOOO..................OOOOOO.........",
"OOOOOOOO.................OOOOOOO.................OOOOOOO........",
"OOOOOOOOOOOOOOO...OOOOOOOOOOOOOOOOOOOOO...OOOOOOOOOOOOOOOOOOOOOO",
"OOOOOOOOOOOOOOO...OOOOOOOOOOOOOOOOOOOOO...OOOOOOOOOOOOOOOOOOOOOO",
"OOOOOOOOOOOOOOO...OOOOOOOOOOOOOOOOOOOOO...OOOOOOOOOOOOOOOOOOOOOO",
"OOOOOOOOOOOOOOO...OOOOOOOOOOOOOOOOOOOOO...OOOOOOOOOOOOOOOOOOOOOO",
"OOOOOOOOOOOOOOO...OOOOOOOOOOOOOOOOOOOOO...OOOOOOOOOOOOOOOOOOOOOO",
".......ooo........OOOOOO..................OOOOOO................",
".......ooo........OOOOO...................OOOOO.................",
".......ooo.......OOOOOO..................OOOOOO.................",
"OOOOOOOOOOOOOOOOOOOOOOO...OOOOOOOOOOOOOOOOOOOOO...OOOOOOOOOOOOOO",
"OOOOOOOOOOOOOOOOOOOOOOO...OOOOOOOOOOOOOOOOOOOOO...OOOOOOOOOOOOOO",
"OOOOOOOOOOOOOOOOOOOOOOO...OOOOOOOOOOOOOOOOOOOOO...OOOOOOOOOOOOOO",
"OOOOOOOOOOOOOOOOOOOOOOO...OOOOOOOOOOOOOOOOOOOOO...OOOOOOOOOOOOOO",
"OOOOOOOOOOOOOOOOOOOOOOO...OOOOOOOOOOOOOOOOOOOOO...OOOOOOOOOOOOOO",
".........OOOOOOO.................OOOOOOO.................OOOOOOO",
"..........OOOOOO..................OOOOOO..................OOOOOO",
"..........OOOOOO..................OOOOOO..................OOOOOO",
"OOOOOOO...OOOOOOOOOOOOOOOOOOOOO...OOOOOOOOOOOOOOOOOOOOO...OOOOOO",
"OOOOOOO...OOOOOOOOOOOOOOOOOOOOO...OOOOOOOOOOOOOOOOOOOOO...OOOOOO",
"OOOOOOO...OOOOOOOOOOOOOOOOOOOOO...OOOOOOOOOOOOOOOOOOOOO...OOOOOO",
"OOOOOOO...OOOOOOOOOOOOOOOOOOOOO...OOOOOOOOOOOOOOOOOOOOO...OOOOOO",
"OOOOOOO...OOOOOOOOOOOOOOOOOOOOO...OOOOOOOOOOOOOOOOOOOOO...OOOOOO",
"OOOOOOO..................OOOOOO..................OOOOOO.........",
"OOOOOOO..................OOOOOO..................OOOOOO.........",
"OOOOOOOO.................OOOOOOO.................OOOOOOO........",
"OOOOOOOOOOOOOOO...OOOOOOOOOOOOOOOOOOOOO...OOOOOOOOOOOOOOOOOOOOOO",
"OOOOOOOOOOOOOOO...OOOOOOOOOOOOOOOOOOOOO...OOOOOOOOOOOOOOOOOOOOOO",
"OOOOOOOOOOOOOOO...OOOOOOOOOOOOOOOOOOOOO...OOOOOOOOOOOOOOOOOOOOOO",
"OOOOOOOOOOOOOOO...OOOOOOOOOOOOOOOOOOOOO...OOOOOOOOOOOOOOOOOOOOOO",
"OOOOOOOOOOOOOOO...OOOOOOOOOOOOOOOOOOOOO...OOOOOOOOOOOOOOOOOOOOOO",
"OOOOOOOOOOOOOOO...OOOOOOOOOOOOOOOOOOOOO...OOOOOOOOOOOOOOOOOOOOOO"
};
