/* XPM */
static const char *floor[] = {
/* columns rows colors chars-per-pixel */
"64 64 44 1 ",
"  c #3C3C46",
". c #3E3E48",
"X c #41414B",
"o c #42424C",
"O c #43434D",
"+ c #44444E",
"@ c #45454F",
"# c #464650",
"$ c #474751",
"% c #494953",
"& c #4A4A54",
"* c #4B4B55",
"= c #4C4C56",
"- c #4D4D57",
"; c #4E4E58",
": c #4F4F59",
"> c #50505A",
", c #51515B",
"< c #52525C",
"1 c #53535D",
"2 c #54545E",
"3 c #55555F",
"4 c #565660",
"5 c #575761",
"6 c #585862",
"7 c #595963",
"8 c #5A5A64",
"9 c #5B5B65",
"0 c #5C5C66",
"q c #5D5D67",
"w c #5E5E68",
"e c #5F5F69",
"r c #61616B",
"t c #62626C",
"y c #63636D",
"u c #64646E",
"i c #666670",
"p c #676771",
"a c #686872",
"s c #6B6B75",
"d c #6C6C76",
"f c #6D6D77",
"g c #74747E",
"h c #75757F",
/* pixels */
">>>>>>>>>>>>>>>>>>>><37eyapppyq753<>>>>>>>>>>>>>>>>>>>>>>>>>>>>>",
">               >   .X@*;3<<<;%@5X.             >               ",
"> 3333333333333 > **=>38eyyyrq7@5X5333333333333 > ************* ",
"> 3333333333333 > **=>38eyyyrq7@5X<333333333333 > ************* ",
"> 3333333333333 > **=>38eyyyrq7@5X5333333333333 > ************* ",
"> 3333333333338 > **=>38eyyyrq7@5X5333333333333 > ************* ",
"> 3333333333333 > **=738eqyyrq7@5X5333333333333 > ************* ",
"> 3333333333333 > *O=>38eyyyrq7@5X5333333333333 > ************* ",
"> 3333333333333 > **=>38eyyyrq7@5X5333333333333 > ************* ",
"> 3333333333333 > **=>38eyyyrq7@5X5333333333333 > ************* ",
"> 3333333333333 > **=>38eyyyrq7@5X53333333e3333 > *=*********** ",
"> 3333333333333 > **=>38eyyyrq7@5X5333333333333 > ************* ",
"> =333333333333 > **=>38eyyyrq7@5X5333333333333 > ******@****** ",
"> 33333333;3333 > **=>38eyyyrq7@5X533333q333333 > ****#******** ",
"> 3333333333333 > **=>38eyyyrq7@5X5333333333333 > ************* ",
">               >   .X@*;3<<<;%@5X.             >               ",
">>>>>>>>>>>>>>>>>>>><37eyapppyq753<>>>>>>>>>>>>>>>>>>>>>>>>>>>>>",
">               >   .X@*;3<<<;%@5X.             >               ",
"> ************* > 3358euafffspy@5X=**********<* > 3333333333333 ",
"> ***********;* > 3358euafffspr@5X=************ > 3333333333333 ",
"> ************* > 3358euafffspy@5X=************ > 3333333333333 ",
"> ************* > 3358euafffspy@5X=************ > 3333333333333 ",
"> ************* > 3358euafffspy@5X=************ > 3333333333333 ",
"> ************* > 3358euafffspy@5X=************ > 3333333333333 ",
"> ************* > 3358euafffspy@5X=********%*** > 3338333333333 ",
"> ************* > 3;58euafffspy@5X=************ > 3333333333333 ",
"> ************* > 3358euafffspy@5X=************ > 333333;333333 ",
"> ************* > 3358euafffspy@5X=************ > 3333333333333 ",
"> ************* > 3358euafffspy@5X=************ > 3333373333333 ",
"> ************* > 3358euafffspy@5X=************ > 3333333333333 ",
"> ************* > 3358euafffspy@5X=***;******** > 3333333333333 ",
">               >   .X@*;3<<<;%@5X.             >               ",
">>>>>>>>>>>>>>>>>>>><37eyapppyq753<>>>>>>>>>>>>>>>>>>>>>>>>>>>>>",
">               >   .X@*;3<<<;%@5X.             >               ",
"> 3333333333333 > **=>38eyyyrq7@5X5333333333333 > ********#**** ",
"> 3333333333333 > **=>38eyyyrq7@5X5333333333333 > ************* ",
"> 3333333333333 > **=>38eyyyrq7@5X5333333333333 > ************* ",
"> 3333333333333 > **=>38eyyyrq7@5X5333333333333 > @************ ",
"> 33<3333333333 > >*<>38eyyyrq7@5X53333333333;3 > *********O*** ",
"> 3333333333333 > **=>38eyyyrq7@5X5333333333333 > ************* ",
"> 3333333333333 > **=>38eyyyrq7@5X5333333333333 > ************* ",
"> 3333333333333 > *>=>38eyyyrq7@5X5333333333333 > ************* ",
"> 3333333333333 > **=>38eyyyrq7@5X5333333333333 > ************* ",
"> 333333333;333 > **=>38eyyyrq7@5X5333333333333 > ************* ",
"> 3333333333q33 > **=>38eyyyrq7@5X5;33333333333 > ************* ",
"> 3333333333333 > **=>38eyyyrq7@5X5333333333333 > ************* ",
"> 3333333333333 > **=>38eyyyrq7@5X5333333333333 > ************* ",
">               >   .X@*;3<<<;%@5X.             >               ",
">>>>>>>>>>>>>>>>>>>><37eyapppyq753<>>>>>>>>>>>>>>>>>>>>>>>>>>>>>",
">               >   .X@*;3<<<;%@5X.             >               ",
"> ************* > 3358euafffspy@5X=************ > 3333333333333 ",
"> ************* > 3358euafffspy@5X=************ > 3333333333333 ",
"> ************* > 3358euafffspy@5X=************ > 3333333333333 ",
"> ************* > 3358euafffspy@5X=************ > 3333333333333 ",
"> ****=******** > 3358euafffspy@5X=************ > 333333333q333 ",
"> ************* > 3358euahffspy@5X=******<***** > 3333333333333 ",
"> ************* > 3358euafffspy@5X=************ > 3333333333333 ",
"> ************* > 3358euaffhspy@5X=************ > 3333333333333 ",
"> ***=********* > e358euafffspy@5X=************ > 3333333333333 ",
"> ************* > 3358euafffspy@5X=************ > 3333333eq3333 ",
"> ************* > 3358euafffspy@5X=;*********** > 3333333333333 ",
"> *O*********** > 3358euafffspy@5X=************ > 3333333333333 ",
"> ************* > 3358euafffspy@5X=***********X > 3333333333333 ",
">               >   .X@*;3<<<;%@5X.             >               "
};
