/* XPM */
static const char *galaxy_wall[] = {
/* columns rows colors chars-per-pixel */
"64 64 234 2 ",
"   c #1E0B33",
".  c #210E35",
"X  c #220F38",
"o  c #231136",
"O  c #25133A",
"+  c #2A153B",
"@  c #26193D",
"#  c #2B1B3D",
"$  c #291237",
"%  c #31173E",
"&  c #321A3E",
"*  c #3A1F3F",
"=  c #2D223F",
"-  c #31223F",
";  c #291740",
":  c #271C41",
">  c #2C1C42",
",  c #2F1E48",
"<  c #331D42",
"1  c #391E42",
"2  c #361F49",
"3  c #272042",
"4  c #2C2244",
"5  c #2D2449",
"6  c #2E2B4C",
"7  c #292846",
"8  c #332344",
"9  c #3B2245",
"0  c #342B44",
"q  c #33244B",
"w  c #3B254B",
"e  c #342B4C",
"r  c #3C2B4B",
"t  c #3B2B46",
"y  c #2E344E",
"u  c #35324C",
"i  c #3B344C",
"p  c #3D3A4D",
"a  c #373346",
"s  c #352B52",
"d  c #3A2C53",
"f  c #3B2B56",
"g  c #343254",
"h  c #3A3354",
"j  c #323A54",
"k  c #363559",
"l  c #3C345A",
"z  c #3C3A5C",
"x  c #3A3A57",
"c  c #2F3151",
"v  c #3E3B62",
"b  c #43254B",
"n  c #432C4C",
"m  c #4B2C4B",
"M  c #442548",
"N  c #43334D",
"B  c #46384E",
"V  c #52314E",
"C  c #432E51",
"Z  c #4D2C52",
"A  c #482753",
"S  c #522E56",
"D  c #443353",
"F  c #4B3454",
"G  c #423B52",
"H  c #4D3A54",
"J  c #4C345A",
"K  c #433A5D",
"L  c #4C3B5A",
"P  c #42345B",
"I  c #553353",
"U  c #5A3654",
"Y  c #5B3955",
"T  c #5C355B",
"R  c #543B5C",
"E  c #5B395C",
"W  c #533858",
"Q  c #502E4E",
"!  c #623C5C",
"~  c #443C64",
"^  c #473C68",
"/  c #593A65",
"(  c #653A67",
")  c #6E3D71",
"_  c #36415C",
"`  c #39445B",
"'  c #3E434B",
"]  c #3B4563",
"[  c #3B4B63",
"{  c #3E4868",
"}  c #3C5265",
"|  c #434455",
" . c #454D53",
".. c #4B445D",
"X. c #474A5A",
"o. c #54425E",
"O. c #5A465C",
"+. c #4D545C",
"@. c #4A5559",
"#. c #54565C",
"$. c #424A4F",
"%. c #63435C",
"&. c #6B455D",
"*. c #52655C",
"=. c #444363",
"-. c #4B446D",
";. c #4C496C",
":. c #464866",
">. c #5C4A62",
",. c #574867",
"<. c #48546A",
"1. c #545C63",
"2. c #565569",
"3. c #4C4A72",
"4. c #534A75",
"5. c #564D7C",
"6. c #584975",
"7. c #495977",
"8. c #585778",
"9. c #644463",
"0. c #6D4465",
"q. c #614C64",
"w. c #684A69",
"e. c #714564",
"r. c #74456A",
"t. c #734C6B",
"y. c #794B6A",
"u. c #6B556E",
"i. c #66566A",
"p. c #76546D",
"a. c #684875",
"s. c #7C4C73",
"d. c #6D5972",
"f. c #675975",
"g. c #725B73",
"h. c #785777",
"j. c #5B666B",
"k. c #5C6B6C",
"l. c #586766",
"z. c #4A637B",
"x. c #4A6375",
"c. c #5A6876",
"v. c #5C7369",
"b. c #646B77",
"n. c #756274",
"m. c #7A637B",
"M. c #776679",
"N. c #627374",
"B. c #687A78",
"V. c #666A6C",
"C. c #865677",
"Z. c #8F597B",
"A. c #85677C",
"S. c #81757C",
"D. c #6C847A",
"F. c #738C7F",
"G. c #5B5383",
"H. c #5B5C84",
"J. c #635B86",
"K. c #755889",
"L. c #4D6282",
"P. c #586886",
"I. c #577488",
"U. c #5A7A97",
"Y. c #686A89",
"T. c #786A87",
"R. c #687887",
"E. c #7B7987",
"W. c #6B6795",
"Q. c #776A95",
"!. c #687895",
"~. c #757692",
"^. c #7470A5",
"/. c #975E82",
"(. c #805B90",
"). c #836C82",
"_. c #8A6585",
"`. c #976987",
"'. c #8C758A",
"]. c #877486",
"[. c #94778B",
"{. c #987D91",
"}. c #8E7993",
"|. c #A3698C",
" X c #A87796",
".X c #AC6B93",
"XX c #BC6DAA",
"oX c #BE72AE",
"OX c #B773AE",
"+X c #8D6DA3",
"@X c #C271AF",
"#X c #C97BB7",
"$X c #D47CBC",
"%X c #C26FAE",
"&X c #DA7FC1",
"*X c #5C8299",
"=X c #758884",
"-X c #789587",
";X c #6D8595",
":X c #658CA8",
">X c #7190AE",
",X c #6F939C",
"<X c #7BA7C4",
"1X c #9A8597",
"2X c #8E8E96",
"3X c #A38499",
"4X c #8AA898",
"5X c #8D8DAD",
"6X c #A995A4",
"7X c #B389AF",
"8X c #A9A8B0",
"9X c #CC84B9",
"0X c #D583BD",
"qX c #88BBD6",
"wX c #89B2CD",
"eX c #BF94C9",
"rX c #DB84C3",
"tX c #D88AC4",
"yX c #D494C8",
"uX c #E287C4",
"iX c #E794CC",
"pX c #F38ED3",
"aX c #F592D5",
"sX c #FE96DC",
"dX c #F794D7",
"fX c #D7A9DF",
"gX c #8CC2DD",
"hX c #94C1DC",
"jX c #9ADBF5",
"kX c #9CDFF9",
"lX c #98CFE9",
"zX c #AFCCEF",
"xX c #9EE3FC",
"cX c #A0E6FF",
/* pixels */
". $ . . 8 j.G ).1Xm.8 < >.8 f J.f O         O a O . O .   o F ).F o   . O X 9 '.6X'.9 .                   . O . O z -.z O X % X ",
"O t $   o 4 + C d.n o . + , 5.^.5., # O > o . o . O l O . < g.1Xm.b o O M O O F m.F #     . O     . # o . > l > O > h > . + T % ",
". $ . .   . . o < o @ . . o d 5.f > | K G.f O .   . O o + O C m.9.0.9 o O . O O < # 6 O . O z @ . # X.# O l -.l O O , O   . % o ",
"  . X % X X % X . q ~ , O O o > O O e G.^.G., + $ O o + Z + + n 0.C.( + . O 6 O . . @ 4 O . : > O o > o . > l , . O f O   . O 9 ",
"O o b r.b < T % @ ~ 5.~ < M o o # o o f G.f < Z w P , $ + o ; O 9 ( M + .   O .   o i j.i O , 3.v k k s O O # > . . O .   o F '.",
"M 1 r./.r.< % X . q ~ q O o . # | # + o q 5 O < K ;.l O . ; ~ ; $ + + 9 $   . O o # j.-XN.=.7.<XqXqXqX<X3.k q ^ ; . . o . < m.6X",
"O O b r.b o . o @ o @ .   . O o # + t # k L.k < q l , O O O @ . O . . + > . + N 8 @ i N.I.<XgXjXxXxXxXjXgX<X3.C + . O r O o L 1X",
". . X % O : O 7 ] 7 o + $ : j 3 o . + 4 L.:X!.9.9 @ . O g O . O a O . > ^ > O i +.0 4 7.wXjXxXcXcXcXxXxXxXjXwX~.C $ . o . o p =X",
"  . + X : ] 6 ] x.] 8 I < j [ j O @ O 8 z P.d.y.U & . . @ + . . @ > . O , < = +.N.1.7.<XjXcXcXcXcXcXcXcXcXcXkXqXQ.< . . . # 1.=X",
". + S + O : O 5 ] 5 o + $ > j 3 @ j D u.D q w U M M $ . + n + + > ] > : < ,.8 0 1.c.wXjXcXcXcXcXcXcXcXcXcXcXcXkXwXh o $ . o u k.",
"  . + . O > O 4 : O @ . . . O . o q d.'.u.8 < + o $ X + $ + & m < 4 6 ] q < o + ..5XlXcXcXcXcXcXcXcXcXcXcXcXcXxXgX3.> M $ . o 4 ",
"    . X q 4.v 7.k q ~ 5 o > o o # + n u.n 8 o.< + X + I < < Q ! U 8 ] x.<.4 # 8 T.hXcXcXcXcXcXcXcXcXcXcXcXcXcXcXjX<Xh > .   . < ",
"  . O > 4.W.H.U.L.3.8.~ q ^ > > X.8 < < + 8 8 + F + > < q ~ D &.e.M e 8.h.H X.8 -.gXxXcXcXcXcXcXcXcXcXcXcXcXcXcXxXqX{ j : . < i.",
". O M + s 4.v 7.k d 6.q o > . o # < T < i j.i + + 4 X.r ;.5.,.t.s.! M s.`.r.n 9 6.gXxXcXcXcXcXcXcXcXcXcXcXcXcXcXxXgXx.} j @ @ 8 ",
"  . O X + > O > @ A s.A O + X O o X < 8 j.=Xk.i + + 8 D n.f.P b ! C < E Z.E 1 0.7XzXcXcXcXcXcXcXcXcXcXcXcXcXcXcXxXgX<._ 3 3 y 3 ",
"    X & m & $ + < r.`.r.9 t & M + . > # G N.2.u.m I n i.).M.<., w ^ d m.1Xm.w / yXzXcXcXcXcXcXcXcXcXcXcXcXcXcXcXkXqXH.s @ j ` _ ",
"  $ 9 m Y M & N & b r.b O + $ O . > :.q E =.4./ Y &.U R u.L q o < < 4 F T.2.d a.oXfXzXcXcXcXcXcXcXcXcXcXcXxXcXxXlX!.8.K > e j 3 ",
". < q.n M & + 0 + O 9 O o # o @ . O u > w 4.J.4.D I C 4.L q.r < ! 0 g h :.=.h w ( yXzXcXcXcXcXcXcXcXcXcXxXcXcXjX<X7.=.q 0 @.u o ",
"  . < $ $ O i k.p 9 U 1 4 +.q l > h b.R S / K.6.;.e 0 q 8 B  .0 8 0 | k.X.h > # A OXeXzXcXcXxXxXcXcXcXcXcXcXjX<X7.4.q # @.v. .+ ",
"    .   . 0 k.-XN.%.e.I + > o @ 8 b.6X9X$XrXrXoXa...N.| H #.l. .t j.B.-Xk.e # i < S a.7XlXkXxXxXcXcXcXcXxXjX<X:.> > X o u  .0 o ",
"  . + . $ r G k.G 9 U 1 $ O . o w a.0XdXsXsXsXaX9X6X4X=XH %.#.N 9 %.O.B.| d # = < ( n g.2XwXlXkXcXxXxXjXgX<X:.> + .   O d 4 o   ",
"+ & I + . $ O 8 q O & < @ s O 2 (.#XaXsXsXsXsXsXdXyX8X,Xq.&.%.V Y &.%.1.8 > # i > w # G >.8.:XqXlXgXqX<X8.k # 4 N O . . o .     ",
"$.8 & X   . o f G.f < R > > q ( #XaXsXsXsXsXsXsXsXsXyX1XW O.r < n >.V Y 9 M 8 = q -.d 1.D 3.Y.5X5Xf.=.,.q.8 0  .a $ . : .     O ",
"@.' # + $ O f G.^.G., > O 6 8.#XaXsXsXsXsXsXsXsXsXsXdX9XR 1.` 6 7.P.O.%.U n 2.i _ k 5 4 # P f.}.6X)./ C.W 8  .l. .+ > ] : . O y ",
"$.0 r >.w , -.^ J.^ @ o q :.Y.tXsXsXsXsXsXsXsXsXsXsXsX0X>.+.i 0 :.I.,.9.! F g.7.<.[ { > > >.d o.T.9._.|.s.9 N @.0 o @ > o o = # ",
"+ # >.M.>.< q r ,.g.C < ^ l J.tXsXsXsXsXsXsXsXsXsXsXsXtXn.l.i.#.=X-XR.8.R 0.h.c.<.g 5 + o + # i r z ~.'.Z < >.0 o o 0 @ o u l.p ",
"o > r >.9 + n n.'.{.g.n < < J $XsXsXsXsXsXsXsXsXsXsXsXuXA.N.I.:.c.=X2...>.=.2.u.8.<.h Z + . $ @ 4 7.*XP.s O > @ # O o o = l.F.N.",
": ] > + O w u.].].).>.q.n m Z XXaXsXsXsXsXsXsXsXsXsXdX9XE.R.*Xx.P.~.=X=X2.c.i.t.O.h z 8 > + 9 + # g 7.z ] , 8 G j.i O o 4 p l.p ",
". @ . . % E F u.F F q.n.O.9 & ) 0XsXsXsXsXsXsXsXsXdXtX}.~.I.*XI.P.R.4X4X=X8.E ! F > 4 4 { 4 4 4 | 4 e @ , n n.2X2XE.R J 2.8 = $ ",
"    . o o % O < 9 Y I O.t + 9 y.7XiXsXsXsXsXsXsXaXtX X].b.*XI.c.P.Y.D.-XR.,.C.w.m.H D # q 4 ] X.B.X.:.> < u. XyXiXiX0XXXw.> .   ",
"    o e o . . 8 U e.Y 9 4 ` q.y.A.7XtXaXsXsXsXaX9X'.i.M.2.I.:.x.k.B.-XD.n.Z.|.[.1Xm.G = p # u B.4XB.u O q a.0XdXsXsXsXpX@X/ q . ",
". $ . o o O @ G n U 9 0 j } 2.w.J J.a.XX$XtXrX#Xs.T.Y.Y.Y.Y.2.l.v.-X-X-X=Xo.q.o.m.,.1.4 # o > G B.G > 2 K.#XaXsXsXsXsXsXaX#XQ.q ",
"$ * $ . @ y 3 # + 8 < H u :...i.n < > J J 6.q.M...8.=.Y.8.2.2.2.k.-XR.f.].| :.x 1.X.B.p = > x g <.u h ( #XaXsXsXsXsXsXsXsXaX#X) ",
". $ o > j ` y @ 0 +.e 8 r d.n.M.O.8 , :.q i 1.B.j.7.~ P.c.1.k.i.j.E.;X1X2X7.<.[ 2.B.-XB.#.` I.7.} j J XXpXsXsXsXsXsXsXsXsXsXaXrX",
"  o , ~ g j 4 e +.v.+.0 >.M.n.n.D h n w.Z E B 1.| ;.J.W.R.N.F.=Xn.M.[. XT.;.:.e e G B.>.g.Y.:XI.[ 4 Z $XsXsXsXsXsXsXsXsXsXsXsXsX",
"o 8 ~ 4.~ 4 > ^ p +.0 4 n u.H O.8 r ! C.C.Z.I n V F _.T.B.c.=X1X{.1X[. X X`.i.h p 0 +.w.C.h.P.k 6 # S $XsXsXsXsXsXsXsXsXsXsXsXsX",
"i 1.| =.q < O > O 4 = G H m.F 8 8 F n y.|..X/.w.%.w.'.g.2.2.f.3X6X3X{.`. X.X_.6.e < - n ! n e 5 :.q 9.tXsXsXsXsXsXsXsXsXsXsXsXsX",
"k.B.1.e n 0.M o > h 4 r M.{.d.N  .a + 9 0./._.T.d.T.u.u.i.2.o.`.2X1XA.m.S.A./ q w E 9 p 8 & D q 5 , E #XdXsXsXsXsXsXsXsXsXsXaXrX",
"i 1.e < e.Z.0.< h ~ h P Y.].L @.*. .4 o & F o.B.~.n.2.!.=XB.V.`.}.Y.2.o.N.2.;.q f q # @ + + h 4.s K d. XiXsXsXsXsXsXsXsXsXsX&X) ",
"4 > o o Z r.M + 8 h d 8.W.G.q G  .i ] > < >.j.D.E.].;X>X;X<.V.).b.=.G l.D.l.u 8 # # p 8 m q 4.W.=.:.,.).yXdXsXsXsXsXsXsXsXpXXX/ ",
"-.> . + S 1 $ + n < r f.J.d 8 q.i 5 4 O # 0 G j.A.`.'.!.b.1.l.1.x <.,.G 1.p 0 1.0 0 8 < + o f H.h l h ;.5XyXdXsXsXsXsXsXdX$Xa.7.",
"> . . > + X . o + + o.i.>.> # 8 4 :.5 e | e L r F t.i.;.8...1.u 5 5 e 4 G ;.| j...h.C I < > k L.k k z.*X>X5XtXaXsXsXsXaXuX.XS q ",
". . q ^ q $ o 4 o $ n o.8 # | # # 5 s 7.x n 9.D =.d G ;.H.8.m.D :.g <...).2XF.D.R.Q.P < > ~ L.U.L.7.I.I.U.2.( oXrXrXtX#X.X`.e.< ",
"  O ^ G.^ > + O X < U M $ o @ = | e <.P.8.w.C.m.!.=.<.l 8./ t.n 4 4 X.B.4X4X-XB.~.^.G.r # r k 7.k k 8.z :.d.J / K.a.J.J Z e.b X ",
"  O f -.q 9 I 1 % I &.I + O O g z.x P w.J F t.!.:XP.g w h.C.C.9.0 | k.=X-X=X| D P J.~ <.r ,.8 4 w Z h.R g.'.n.8.J.-.q o + M + . ",
"  O l 5 + I &.I & M I 1 @ s 5 7.*XP.w.s.0.>.r k L.k < + E /.Z.f.d 8 | j.| e < T m 9.r e + r + < u.C./.r.W u.D f 8.s O o n u.n $ ",
"  . O . O n U 1 & S < O < @ @ K 7.k D %.D X.4 O q < T F s.|.`.W.-.e 1.| | # + 9 O.e.9.-.D q.w + 8 n e.M + 9 > k I.k @ e d.'.u.< ",
"  O . . # +.9 O > + X % T < M 0.L u  .G ` } j > n < P 5.6._.~.P.f q 8 > # + n r 2.i.6.8.d.m.q.# + + 9 + 1 U D P.:XL.s :.L u.n $ ",
"O 6 O   o # O q -.q O + w 1 0.Z.t.#.*. .6 j 3 o > , 5.W.J.P.I.z.h q.D e O . > ] x.<.l ~ D q.r + a = G W y.C.s.a.P.k O : O < o   ",
". O   . O o ; -.H.-., f 5.f n t.n t +.0 O # o O g 0 D i.L h x.l.i H q.r O @ o 5 ] s s > @ 0 # > # + ( XXuXuXuXoXa.> . . . + .   ",
"# o . + n + O q 3.s , 5.W.5.q x # + Y & + t + o r %.i.n.i.r +.v.#.i.M.>.q l > < 4 8 # o # X.l 4.P ( @XpXsXsXsXpX@X/ < X @ F @ . ",
"+.# . . + . . 3 _ 4 o s 5.f O O . . < < O + # + U y.p.A.].F 0  .G n >.r , > < o.L d.n o o e 5.Q.+X#XaXsXsXsXsXsXpX#XK.< . + .   ",
"# .   . ; . O u ` u O o q o o # . o A s.A # p + 1 ! 9.).1Xg.8 r >.8 # > l O o r g.'.u.< + # L Q.tXaXsXsXsXsXsXsXsXaX@XA . .     ",
".   . ; ^ ; . 4 | 4 o O i @ # X.# < s.|.s.< + o + W m.u.n.D 8 + + $ O . O o o O n u.n # G F g.h.tXsXsXsXsXsXsXsXsXsX$XA o @ .   ",
"& .   . > . X n t.n $ $ - $ o 4 > @ m s.A o o > 8 g.{.g.n 8 +.r O O 9 $ . o 0 O & < o o 0 u.'.`.uXsXsXsXsXsXsXsXsXsX$XI > z @   ",
"( + . o @ o % r./.r.< 8 W 8 o q -.q @ w o . > :.5 C g.F + + L d.n o + = o . o + Z % + . O D d.w.0XsXsXsXsXsXsXsXsXsXrXt.> @ .   ",
"< . . 7 ] 7 o M r.M & W i.W 8 -.H.-.q f O   . > O O 9 B + < u.'.u.< > +.# . . . + + N # , K d Z XXpXsXsXsXsXsXsXsXpXXXZ # .     ",
"+ . O ] x.] @ + r + $ n %.n + q -.q o O ; .   o q o . @ + o n u.C < o = o . O . . . + @ l -.K b ( %XpXsXsXsXsXsXpX%X/ q h > . O ",
"Q O . 7 [ 6 O # X.# + I 0.I + o 5 O . ; l O     O . . O M + + < < I < @ o O i @ : . . . > l r E 1 ( #XaXdXsXdXpX@X( < h =.h , l ",
"+ .   O 5 g : o # o . 1 Y d O O l > . . O .     . > . . + 8 H 8 o < q P , o O : z @ . o o 4 O + X 1 C.@X$X$X$XXX( I + > k > . O ",
"o @ . o e z e o o O . o z L.g O 6 x 3   . O .   + o.+ . + H O.H + @ P ;.l O   . @ . o e 6 _ 4 . . X < A A A A b + O . . o .     ",
"6 [ 5 O > s # . O c O > L.*XL.6 j } j O : z : @ o + O # O & H 8 @ O , P 5 : . o @ o . > _ <._ @ O . X + $ . $ + . . .       O   ",
"<.z.] @ O > o     O   O g 7.g O 3 j :   . : 5 _ 4 O > <.# o + @ s o . O : k @ = ' = . . 4 _ 4 # f @ 1 Q & $ = ' = $ + .   O 7 O ",
"6 <.6 O @ _ @           O > O   . O .     @ [ 7.[ @ o > o   . . o .     . @ #  .*. .@   . @ . . @ % U e.U 8  .*. .8 F + .   O   "
};
