/* XPM */
static const char *neon_sign[] = {
/* columns rows colors chars-per-pixel */
"64 64 153 2 ",
"   c #09070A",
".  c #0A080A",
"X  c #0B080A",
"o  c #0B080B",
"O  c #0C080B",
"+  c #0C090B",
"@  c #0D090B",
"#  c #0C080C",
"$  c #0C090C",
"%  c #0D090C",
"&  c #0D090D",
"*  c #0E090C",
"=  c #0E090D",
"-  c #0E0A0C",
";  c #0F0A0C",
":  c #0E0A0D",
">  c #0F0A0D",
",  c #0F0B0D",
"<  c #0D090E",
"1  c #0D090F",
"2  c #0E090E",
"3  c #0E090F",
"4  c #0F090F",
"5  c #0F0A0E",
"6  c #0F0B0E",
"7  c #0F0A0F",
"8  c #100B0D",
"9  c #100B0E",
"0  c #110B0E",
"q  c #100A0F",
"w  c #100B0F",
"e  c #110B0F",
"r  c #0E0910",
"t  c #0F0910",
"y  c #0F0911",
"u  c #0F0912",
"i  c #110B10",
"p  c #100A11",
"a  c #110B11",
"s  c #100913",
"d  c #100A12",
"f  c #110A12",
"g  c #110B12",
"h  c #120B12",
"j  c #120B13",
"k  c #120C12",
"l  c #130C12",
"z  c #130C13",
"x  c #100914",
"c  c #110915",
"v  c #110A14",
"b  c #120B14",
"n  c #120B15",
"m  c #110916",
"M  c #120917",
"N  c #120A16",
"B  c #130A16",
"V  c #120B16",
"C  c #130B16",
"Z  c #120A17",
"A  c #130A17",
"S  c #130B17",
"D  c #140B15",
"F  c #140B16",
"G  c #140C16",
"H  c #150C17",
"J  c #120A18",
"K  c #130A1A",
"L  c #140B18",
"P  c #150B19",
"I  c #140A1B",
"U  c #150B1B",
"Y  c #160B1B",
"T  c #150C18",
"R  c #150C19",
"E  c #160C19",
"W  c #160C1A",
"Q  c #140A1C",
"!  c #150A1E",
"~  c #160A1F",
"^  c #170C1C",
"/  c #170C1D",
"(  c #170C1E",
")  c #180C1E",
"_  c #170B20",
"`  c #170B21",
"'  c #170C20",
"]  c #180B21",
"[  c #180B23",
"{  c #190C20",
"}  c #180C21",
"|  c #190C21",
" . c #1A0D21",
".. c #180C22",
"X. c #1A0D22",
"o. c #1A0C25",
"O. c #1C0E27",
"+. c #1D0E27",
"@. c #1D0D2C",
"#. c #200F2D",
"$. c #2A1141",
"%. c #2D1342",
"&. c #2C1243",
"*. c #2C1245",
"=. c #2E1345",
"-. c #2E1347",
";. c #32154A",
":. c #33164A",
">. c #34154E",
",. c #331450",
"<. c #391659",
"1. c #3B185C",
"2. c #3D195C",
"3. c #3C185D",
"4. c #3E185F",
"5. c #3F1A61",
"6. c #3F1962",
"7. c #441A6C",
"8. c #491C71",
"9. c #4A1C77",
"0. c #4B1D77",
"q. c #5F239B",
"w. c #60239B",
"e. c #61249A",
"r. c #61259A",
"t. c #63259C",
"y. c #63259D",
"u. c #63269E",
"i. c #64259F",
"p. c #6325A3",
"a. c #6425A2",
"s. c #6525A2",
"d. c #6425A3",
"f. c #6526A5",
"g. c #6726A5",
"h. c #6625A6",
"j. c #6726A6",
"k. c #6827A6",
"l. c #6A27AA",
"z. c #6A27AB",
"x. c #6A28A9",
"c. c #6A28AA",
"v. c #6D28B2",
"b. c #7128B9",
"n. c #722ABA",
"m. c #732BBB",
"M. c #742BBB",
"N. c #732ABD",
"B. c #752AC1",
"V. c #762BC0",
"C. c #7A2CC6",
"Z. c #7D2DCD",
"A. c #7E2DD0",
/* pixels */
"@ - - - - - - - - - - - - - - @ @ - - - - - - - - - - - - - - @ @ - - - - - - - - - - - - - - @ @ - - - - - - - - - - - - - - @ ",
"- - - - - - - - - - - - - - - - - - - - - - - - - - - - - - - - - - - - - - - - - - - - - - - - - - - - - - - - - - - - - - - - ",
"- - 8 8 8 8 8 8 8 8 8 8 8 8 - - - - 8 8 8 8 8 8 8 8 8 8 8 8 - - - - 8 8 8 8 8 8 8 8 8 8 8 8 - - - - 8 8 8 8 8 8 8 8 8 8 8 8 - - ",
"- - 8 8 8 8 8 8 8 8 8 8 8 8 - - - - 8 8 8 8 8 8 8 8 8 8 8 8 - - - - 8 8 8 8 8 8 8 8 8 8 8 8 - - - - 8 8 8 8 8 8 8 8 8 8 8 8 - - ",
"- - 8 8 8 8 8 8 8 8 - 8 8 8 - - - - 8 8 8 8 8 8 8 8 8 8 8 8 - - - - 8 8 8 8 8 8 8 8 8 8 8 8 - - - - 8 8 8 8 8 8 8 8 - 8 8 8 - - ",
"- - - - - - - - - - - - - - - - - - - - - - - - - - - - - - - - - - - - - - - - - - - - - - - - - - - - - - - - - - - - - - - - ",
"@ @ - - - - - - - - - - - - @ @ @ @ - - - - - - - - - - - - @ @ @ @ - - - - - - - - - - - - @ @ @ @ - - - - - - - - - - - - @ @ ",
"@ @ @ @ @ @ @ @ @ @ @ @ @ @ @ @ @ @ @ @ @ @ @ @ @ @ @ @ @ @ @ @ @ @ @ @ @ @ @ @ @ @ @ @ @ @ @ @ @ @ @ @ @ @ @ @ @ @ @ @ @ @ @ @ ",
"- - - - - - @ @ @ @ - - - - - - - - - - - - @ @ @ @ - - - - - - - - - - - - @ @ @ @ - - - - - - - - - - - - @ @ @ @ - - - - - - ",
"- - - - - - - - - - - - - - - - - - - - - - - - - - - - - - - - - - - - - - - - - - - - - - - - - - - - - - - - - - - - - - - - ",
"8 8 8 8 8 8 - - - - 8 8 8 8 8 8 8 8 8 8 8 8 - - - - 8 8 8 8 8 8 8 8 8 8 8 8 - - - - 8 8 8 8 8 8 8 8 8 8 8 8 - - - - 8 8 8 8 8 8 ",
"8 8 8 8 8 8 - - - - 8 8 8 8 8 8 8 8 8 8 8 8 - - - - 8 8 8 8 8 8 8 8 8 8 8 8 - - - - 8 8 8 8 8 8 8 8 8 8 8 8 - - - - 8 8 8 8 8 8 ",
"8 8 8 8 8 8 - - - - 8 8 8 8 8 8 8 8 8 8 8 8 - - - - 8 8 8 8 8 8 8 8 - 8 8 8 - - - - 8 8 - 8 8 8 8 8 8 8 8 8 - - - - 8 8 8 8 8 8 ",
"- - - - - - - - - - - - - - - - - - - - - - - - - - - - - - - - - - - - - - - - - - - - - - - - - - - - - - - - - - - - - - - - ",
"- - - - - - @ @ @ @ - - - - - - - - - - - - @ @ @ @ - - - - - - - - - - - - @ @ @ @ - - - - - - - - - - - - @ @ @ @ - - - - - - ",
"@ @ @ @ @ @ @ @ @ @ @ @ @ @ @ @ @ @ @ @ @ @ @ @ @ @ @ @ @ @ @ @ @ @ @ @ @ @ @ @ @ @ @ @ @ @ @ @ @ @ @ @ @ @ @ @ @ @ @ @ @ @ @ @ ",
"@ @ - - - - - - - - - - - - @ @ @ @ - - - - - - - - - - - - @ @ @ @ - - - - - - - - - - - - @ @ @ @ - - - - - - - - - - - - @ @ ",
"- - - - - - - - - - - - - - - - - - - - - - - - - - - - - - - - - - - - - - - - - - - - - - - - - - - - - - - - - - - - - - - - ",
"- - 8 8 8 8 8 8 8 8 8 8 8 8 - - - - 8 8 8 8 8 8 8 8 8 8 8 8 - - - - 8 8 8 8 8 8 8 8 8 8 8 8 - - - - 8 8 8 8 8 8 8 8 8 8 8 8 - - ",
"- - 8 8 8 8 8 8 8 8 8 8 8 8 - - - - 8 8 8 8 8 8 8 8 8 8 8 8 - - - - 8 8 8 8 8 8 8 8 8 8 8 8 - - - - 8 8 8 8 8 8 8 8 8 8 8 8 - - ",
"- - 8 8 8 8 8 8 8 8 8 8 8 8 - - - - 8 8 8 8 8 8 8 8 8 8 8 8 - - - - 8 8 8 8 8 8 8 8 8 8 8 8 - - - - 8 8 8 8 8 8 8 8 8 8 8 8 - - ",
"- - - - - - - - - - - - - - - - - - - - - - - - - - - - - - - - - - - - - - - - - - - - - - - - - - - - - - - - - - - - - - - - ",
"@ @ - - - - - - - - - - - - @ @ @ @ - - - - - - - - - - - - @ @ @ @ - - - - - - - - - - - - @ @ @ @ - - - - - - - - - - - - @ @ ",
"@ @ @ @ @ @ @ @ @ @ @ @ @ @ @ @ - - - - - - - - - - - - - - @ @ @ @ @ @ @ @ @ @ @ @ @ @ @ @ @ @ @ @ @ @ @ @ @ @ @ @ @ @ @ @ @ @ ",
"- - - - - - @ @ @ @ - - - - - - - - r r r - - - - r r r - - - - - - - - - - @ @ @ @ - - - - - - - - - - - - @ @ @ @ - - - - - - ",
"- - - - - - - - - - - - - - - 8 f N N N N N f f N N N N N f 8 - - - - - - - - - - - - - - - - - - - - - - - - - - - - - - - - - ",
"8 8 8 8 8 8 - - - - 8 8 8 8 f f F 5.c.k.e.#.L L 3.l.k.c.3.F f f 8 8 8 8 8 8 - - - - 8 8 8 8 8 8 8 8 8 8 8 8 - - - - 8 8 8 8 8 8 ",
"8 8 8 8 8 8 - - - - 8 8 8 8 k G ;.u.{ ) 8.i.^ >.g.O.^ O.g.;.G k 8 8 8 8 8 8 - - - - 8 8 8 8 8 8 8 8 8 8 8 8 - - - - 8 8 8 8 8 8 ",
"8 8 8 8 8 8 - - - - 8 8 8 8 f T u.&.^ ^ O.e.{ s.=.L T T =.u.T f 8 8 - 8 8 8 - - - - 8 8 8 8 - 8 8 8 8 8 8 8 - - - - 8 8 8 8 8 8 ",
"- - - - - - - - - - - - - - f L n.{ L L ^ { { B.{ N N N { M.L f - - - - - - - - - - - - - - - - - - - - - - - - - - - - - - - - ",
"- - - - - - @ @ @ @ - - - - r N N._ L 7.g.n.] B.] N N N ' n.N r - - - - - - @ @ @ @ - - - - - - - - - - - - @ @ @ @ - - - - - - ",
"@ @ @ @ @ @ @ @ @ @ @ @ @ - r N s.$.! ! @.A.] p.=.J N J &.q.N r - @ @ @ @ @ @ @ @ @ @ @ @ @ @ @ @ @ @ @ @ @ @ @ @ @ @ @ @ @ @ @ ",
"@ @ - - - - - - - - - - - - - N <.w._ ! 0.Z.] ,.g.o.J o.s.=.f - - @ - - - - - - - - - - - - @ @ @ @ - - - - - - - - - - - - @ @ ",
"- - - - - - - - - - - - - - - f N 0.v.s.5.C.^ L 3.l.g.l.1.N f - - - - - - - - - - - - - - - - - - - - - - - - - - - - - - - - - ",
"- - 8 8 8 8 8 8 8 8 8 8 8 8 - - f N L T T T G G G T T G F f 8 - - - 8 8 8 8 8 8 8 8 8 8 8 8 - - - - 8 8 8 8 8 8 8 8 8 8 8 8 - - ",
"- - 8 8 8 8 8 8 8 8 8 8 8 8 - - - f f k k k k k k k k k k f - - - - 8 8 8 8 8 8 8 8 8 8 8 8 - - - - 8 8 8 8 8 8 8 8 8 8 8 8 - - ",
"- - 8 8 8 8 8 8 8 8 8 8 8 8 - - - - 8 8 8 8 8 8 8 8 8 8 8 8 - - - - 8 8 8 8 8 8 8 8 8 8 8 8 - - - - 8 8 8 8 8 8 8 8 8 8 8 8 - - ",
"- - - - - - - - - - - - - - - - - - - - - - - - - - - - - - - - - - - - - - - - - - - - - - - - - - - - - - - - - - - - - - - - ",
"@ @ - - - - - - - - - - - - - - @ @ - - - - - - - - - - - - @ @ @ @ - - - - - - - - - - - - @ @ @ @ - - - - - - - - - - - - @ @ ",
"@ @ @ @ @ @ @ @ @ @ @ @ @ @ @ @ - - @ @ @ @ @ @ @ @ @ @ @ @ @ @ @ @ @ @ @ @ @ @ @ @ @ @ @ @ @ @ @ @ @ @ @ @ @ @ @ @ @ @ @ @ @ @ ",
"- - - - - - @ @ @ @ - - - - - - - - - - - - @ @ @ @ - - - - - - - - - - - - @ @ @ @ - - - - - - - - - - - - @ @ @ @ - - - - - - ",
"- - - - - - - - - - - - - - - - - - - - - - - - - - - - - - - - - - - - - - - - - - - - - - - - - - - - - - - - - - - - - - - - ",
"8 8 8 8 8 8 - - - - 8 8 8 8 8 8 8 8 8 8 8 8 - - - - 8 8 8 8 8 8 8 8 8 8 8 8 - - - - 8 8 8 8 8 8 8 8 8 8 8 8 - - - - 8 8 8 8 8 8 ",
"8 8 8 8 8 8 - - - - 8 8 8 8 8 8 8 8 8 8 8 8 - - - - 8 8 8 8 8 8 8 8 8 8 8 8 - - - - 8 8 8 8 8 8 8 8 8 8 8 8 - - - - 8 8 8 8 8 8 ",
"8 8 8 8 8 8 - - - - 8 8 8 8 8 8 8 8 - 8 8 8 - - - - 8 8 8 8 8 8 8 8 8 8 8 8 - - - - 8 8 8 8 8 8 8 8 - 8 8 8 - - - - 8 8 8 8 8 8 ",
"- - - - - - - - - - - - - - - - - - - - - - - - - - - - - - - - - - - - - - - - - - - - - - - - - - - - - - - - - - - - - - - - ",
"- - - - - - @ @ @ @ - - - - - - - - - - - - @ @ @ @ - - - - - - - - - - - - @ @ @ @ - - - - - - - - - - - - @ @ @ @ - - - - - - ",
"@ @ @ @ @ @ @ @ @ @ @ @ @ @ @ @ @ @ @ @ @ @ @ @ @ @ @ @ @ @ @ @ @ @ @ @ @ @ @ @ @ @ @ @ @ @ @ @ @ @ @ @ @ @ @ @ @ @ @ @ @ @ @ @ ",
"@ @ - - - - - - - - - - - - @ @ @ @ - - - - - - - - - - - - @ @ @ @ - - - - - - - - - - - - @ @ @ @ - - - - - - - - - - - - @ @ ",
"- - - - - - - - - - - - - - - - - - - - - - - - - - - - - - - - - - - - - - - - - - - - - - - - - - - - - - - - - - - - - - - - ",
"- - 8 8 8 8 8 8 8 8 8 8 8 8 - - - - 8 8 8 8 8 8 8 8 8 8 8 8 - - - - 8 8 8 8 8 8 8 8 8 8 8 8 - - - - 8 8 8 8 8 8 8 8 8 8 8 8 - - ",
"- - 8 8 8 8 8 8 8 8 8 8 8 8 - - - - 8 8 8 8 8 8 8 8 8 8 8 8 - - - - 8 8 8 8 8 8 8 8 8 8 8 8 - - - - 8 8 8 8 8 8 8 8 8 8 8 8 - - ",
"- - 8 8 8 8 8 8 8 8 - 8 8 8 - - - - 8 8 8 8 8 8 8 8 - 8 8 8 - - - - 8 8 8 8 8 8 8 8 - 8 8 8 - - - - 8 8 8 8 8 8 8 8 - 8 8 8 - - ",
"- - - - - - - - - - - - - - - - - - - - - - - - - - - - - - - - - - - - - - - - - - - - - - - - - - - - - - - - - - - - - - - - ",
"@ @ - - - - - - - - - - - - @ @ @ @ - - - - - - - - - - - - @ @ @ @ - - - - - - - - - - - - @ @ @ @ - - - - - - - - - - - - @ @ ",
"@ @ @ @ @ @ @ @ @ @ @ @ @ @ @ @ @ @ @ @ @ @ @ @ @ @ @ @ @ @ @ @ @ @ @ @ @ @ @ @ @ @ @ @ @ @ @ @ @ @ @ @ @ @ @ @ @ @ @ @ @ @ @ @ ",
"- - - - - - @ @ @ @ - - - - - - - - - - - - @ @ @ @ - - - - - - - - - - - - @ @ @ @ - - - - - - - - - - - - @ @ @ @ - - - - - - ",
"- - - - - - - - - - - - - - - - - - - - - - - - - - - - - - - - - - - - - - - - - - - - - - - - - - - - - - - - - - - - - - - - ",
"8 8 8 8 8 8 - - - - 8 8 8 8 8 8 8 8 8 8 8 8 - - - - 8 8 8 8 8 8 8 8 8 8 8 8 - - - - 8 8 8 8 8 8 8 8 8 8 8 8 - - - - 8 8 8 8 8 8 ",
"8 8 8 8 8 8 - - - - 8 8 8 8 8 8 8 8 8 8 8 8 - - - - 8 8 8 8 8 8 8 8 8 8 8 8 - - - - 8 8 8 8 8 8 8 8 8 8 8 8 - - - - 8 8 8 8 8 8 ",
"8 8 8 8 8 - - - - - - 8 8 8 8 8 8 8 8 8 8 - - - - - - 8 8 8 8 8 8 8 8 8 8 - - - - - - 8 8 8 8 8 8 8 8 8 8 - - - - - - 8 8 8 8 8 ",
"- - - - - - - @ @ - - - - - - - - - - - - - - @ @ - - - - - - - - - - - - - - @ @ - - - - - - - - - - - - - - @ @ - - - - - - - ",
"@ @ @ @ @ @ . . . . @ @ @ @ @ @ @ @ @ @ @ @ . . . . @ @ @ @ @ @ @ @ @ @ @ @ . . . . @ @ @ @ @ @ @ @ @ @ @ @ . . . . @ @ @ @ @ @ ",
". . . . . .         . . . . . . . . . . . .         . . . . . . . . . . . .         . . . . . . . . . . . .         . . . . . . "
};
