/* XPM */
static const char *princess_wall[] = {
/* columns rows colors chars-per-pixel */
"64 64 196 2 ",
"   c #F25733",
".  c #F3554B",
"X  c #61E229",
"o  c #5ADA50",
"O  c #6DD845",
"+  c #54EA43",
"@  c #BC9B1B",
"#  c #BC9A2E",
"$  c #BC9C30",
"%  c #B8A521",
"&  c #B7A321",
"*  c #B2A134",
"=  c #D39D0A",
"-  c #CEA604",
";  c #C1AE0A",
":  c #CDA517",
">  c #CCA21A",
",  c #D3AF1C",
"<  c #DEBC1C",
"1  c #EEBA10",
"2  c #C89929",
"3  c #D29F23",
"4  c #C69734",
"5  c #C88D34",
"6  c #CBA12D",
"7  c #D3A728",
"8  c #D3B236",
"9  c #CAAC32",
"0  c #F3CB02",
"q  c #FBD301",
"w  c #F9D416",
"e  c #BC9943",
"r  c #D3A341",
"t  c #6B7AC7",
"y  c #6277DB",
"u  c #B577AC",
"i  c #F279AE",
"p  c #AA79CE",
"a  c #A06FD7",
"s  c #A372D4",
"d  c #AB7CD3",
"f  c #A678D2",
"g  c #8957F6",
"h  c #8C5BF5",
"j  c #8553F8",
"k  c #915FF3",
"l  c #9D6BEE",
"z  c #9F74EF",
"x  c #8F62F5",
"c  c #9563F2",
"v  c #9967F0",
"b  c #9669F4",
"n  c #9B6AF1",
"m  c #9264F9",
"M  c #9E73F4",
"N  c #9D72F8",
"B  c #A16FED",
"V  c #AF7DE7",
"C  c #A473EC",
"Z  c #A977EA",
"A  c #A679ED",
"S  c #AC7AE9",
"D  c #A674E7",
"F  c #B07EE7",
"G  c #A275F3",
"H  c #A579F2",
"J  c #A97CF1",
"K  c #9F85BF",
"L  c #BB9FA0",
"P  c #BB94B2",
"I  c #A289AB",
"U  c #D2949F",
"Y  c #C696AE",
"T  c #CA99B6",
"R  c #D495B3",
"E  c #F0DEB3",
"W  c #9E86C2",
"Q  c #BE8CCA",
"!  c #AF82D3",
"~  c #B589D6",
"^  c #B492CA",
"/  c #AD82EC",
"(  c #B483E5",
")  c #B886E4",
"_  c #B788E4",
"`  c #BC8AE2",
"'  c #B385EC",
"]  c #B58BEC",
"[  c #BA8DEA",
"{  c #BE91E5",
"}  c #BC92EC",
"|  c #AD85F2",
" . c #AC85F8",
".. c #B38BF1",
"X. c #B996F3",
"o. c #CD9DC4",
"O. c #C394CA",
"+. c #C997C8",
"@. c #C699C9",
"#. c #D19EC4",
"$. c #D396C3",
"%. c #C593DE",
"&. c #C997DD",
"*. c #CC9BDC",
"=. c #CB9BD3",
"-. c #D09ED7",
";. c #D09EDA",
":. c #D4A2C3",
">. c #CFA2DF",
",. c #D6A5D7",
"<. c #D9A7D7",
"1. c #DDABD5",
"2. c #D4A3D9",
"3. c #D7A9DB",
"4. c #DAACDB",
"5. c #DEB2D6",
"6. c #DDB2DB",
"7. c #E1AFD3",
"8. c #E4B2D2",
"9. c #E5BAD6",
"0. c #E2B5DB",
"q. c #E5BADD",
"w. c #E9BCD9",
"e. c #C08EE1",
"r. c #C291E1",
"t. c #C59BE3",
"y. c #CA9DE2",
"u. c #C39AEB",
"i. c #C99EE8",
"p. c #C397EB",
"a. c #CDA4E4",
"s. c #CAA3EA",
"d. c #C7A2EB",
"f. c #D0A5E4",
"g. c #D5ACE3",
"h. c #D4ACE5",
"j. c #DBB1E1",
"k. c #D4B3ED",
"l. c #D3BFFA",
"z. c #DCDECF",
"x. c #ECC2DB",
"c. c #E7CBDE",
"v. c #EADBDE",
"b. c #F9DDD2",
"n. c #EDE4DF",
"m. c #F2E6DD",
"M. c #F3EBDE",
"N. c #F8EEDC",
"B. c #F6F1DE",
"V. c #FAF4DD",
"C. c #FEFDDC",
"Z. c #DCCCE5",
"A. c #DEC8FC",
"S. c #E9C0E0",
"D. c #E7DDE2",
"F. c #E8DFE2",
"G. c #E3D4E1",
"H. c #F1DFEF",
"J. c #F2DBE4",
"K. c #E4CBFA",
"L. c #E8CEF7",
"P. c #EADBF6",
"I. c #E5D3FB",
"U. c #E9D4FE",
"Y. c #E6D8F9",
"T. c #EEDAFB",
"R. c #EAD5F4",
"E. c #F4DCF3",
"W. c #F5DFF8",
"Q. c #F1DDFB",
"!. c #EBE1E1",
"~. c #F9E8E5",
"^. c #F7E9E6",
"/. c #F9F5E5",
"(. c #FEFDE2",
"). c #F5F0E3",
"_. c #EEE3F7",
"`. c #EEE4FA",
"'. c #F3E4F4",
"]. c #F9E3F7",
"[. c #FAE5F7",
"{. c #F7E1F8",
"}. c #F2E5FA",
"|. c #FAE7FB",
" X c #F8E7FC",
".X c #F4ECFA",
"XX c #FCE9FA",
"oX c #FFEEFF",
"OX c #FEEDFD",
"+X c #FDEDFF",
"@X c #F7F2FC",
"#X c #FFF0FF",
"$X c #FFF1FF",
"%X c #FEF1FE",
"&X c #FFFEFF",
"*X c #FCF5F6",
/* pixels */
"8.8.8.8.8.8.8.8.8.8.8.8.8.8.8.8.8.8.8.8.w.XX#X#X#XXXw.8.8.8.8.8.8.8.8.x.XX#X#X#X*Xx.8.x.XX#XXXx.8.8.8.8.8.8.8.8.8.8.8.8.8.8.8.8.",
"8.8.8.8.8.8.8.8.8.8.8.8.8.8.8.8.8.8.8.8.9.].#X#X#X].9.8.8.8.8.8.8.9.w.[.#X#X#X#X#X[.x.[.#X#X#X[.9.8.8.8.8.8.8.8.8.8.8.8.8.8.8.8.",
"8.8.8.8.8.8.8.8.8.8.8.8.8.8.8.8.8.8.8.8.8.w.].XX].w.8.8.8.8.8.8.0.E.].OX#X#X#X#X#XOX[.OXOX#XOXXX0.8.8.8.8.8.8.8.8.8.8.8.8.8.8.8.",
"7.7.7.7.7.7.7.7.7.7.7.7.7.7.7.7.7.7.7.7.7.7.0.0.0.7.7.7.7.7.7.7.7.0.q.].#X#X#X#X#X].S.].OXOXOX].0.7.7.7.7.7.7.7.8.8.7.7.7.7.7.7.",
"1.1.1.1.1.1.1.1.1.1.1.1.1.1.1.1.1.1.1.1.1.1.1.1.1.1.1.1.1.1.1.1.1.1.1.q.[.#X#X#X[.q.5.q.].XX].q.1.1.1.1.1.1.1.8.8.8.1.1.1.1.1.1.",
"1.1.1.1.1.1.1.1.1.1.1.1.1.1.1.1.1.1.1.1.1.1.1.1.1.1.1.1.1.1.1.1.1.1.1.1.q.].OX].q.1.1.1.0.0.0.1.1.1.1.1.1.1.9.N.V.N.9.1.1.1.1.1.",
"1.1.1.1.1.1.1.1.1.1.1.1.1.1.1.6.1.6.1.1.1.1.1.1.1.1.1.1.1.1.1.1.1.1.1.1.1.0.{.0.1.1.1.1.1.1.1.1.1.1.1.1.1.9.N.C.C.C.N.9.1.1.1.1.",
"6.1.1.4.1.1.1.1.1.1.1.1.1.1.4.H.q.H.4.1.1.1.1.1.1.1.1.1.1.1.1.1.1.1.1.1.1.6.E.6.1.1.1.1.1.1.1.1.1.1.1.1.5.N.C.C.C.C.C.N.5.1.1.1.",
"'.6.0.E.0.<.<.<.<.<.<.<.<.<.<.0.E.0.<.<.<.<.<.<.<.<.<.<.<.<.<.<.<.<.<.<.<.<.4.<.<.<.<.<.<.<.<.<.<.<.<.<.5.V.C.C.C.C.C.V.5.<.<.<.",
"4.4.E.OXE.4.,.,.,.,.,.,.,.,.,.,.4.,.,.,.,.,.,.,.,.,.,.,.,.,.,.,.,.,.,.,.,.,.,.,.,.,.,.,.,.4.,.,.,.,.,.,.1.N.C.C.C.C.C.N.1.,.1.,.",
",.,.6.E.6.,.,.,.,.,.,.,.,.,.4.4.4.,.,.,.,.,.,.,.,.,.,.,.,.,.,.,.,.,.,.,.,.,.,.,.,.,.,.,.6.'.6.,.,.,.,.,.,.5.N.C.C.C.N.5.,.5.m.5.",
"2.2.2.3.2.2.2.,.4.4.4.,.2.6.{.|.{.6.2.2.2.,.:.:.:.,.2.,.:.:.:.,.2.,.:.:.:.,.2.2.2.2.2.4.}.&X}.4.2.2.2.2.2.,.6.M.V.M.6.,.4.m.C.M.",
"2.2.2.2.2.2.2.j.{.|.{.j.4.{.OX#XOX{.4.2.2.:.6 > 6 :.2.:.6 > 6 :.2.:.6 > 6 :.2.2.2.2.2.2.j.}.j.2.2.2.2.2.2.2.2.3.4.3.2.2.2.6.m.6.",
";.;.;.;.;.;.3.{.OX#XOX{.j.|.#X#X#X|.3.;.;.#.> 1 6 #.;.#.> 1 6 #.;.#.> < 6 #.;.;.;.;.;.;.2.3.2.;.;.;.;.;.;.;.;.;.;.;.;.;.;.2.,.2.",
";.;.;.;.;.;.3.|.#X#X#X|.j.{.OX#X#X{.3.;.;.#.4 i #.;.;.#.4   R -.;.o.e t @.-.;.;.;.;.;.;.;.;.;.;.;.;.;.;.;.;.;.;.;.;.;.;.;.;.;.;.",
"*.*.*.*.*.*.3.W.OX#XOXW.3.g.W.|.|.g.*.*.*.*.$.i ,.o.o.T U . R o.o.o.P y %.*.*.*.*.*.*.*.*.*.*.*.*.*.*.*.*.*.*.*.*.*.*.*.*.*.*.*.",
"*.*.*.*.*.*.*.g.W.|.W.g.*.*.2.g.'.2.*.*.*.*.o.r E 7 > > : = : > > > > $ o.*.*.*.*.*.*.*.*.*.*.*.*.*.*.*.*.*.*.*.*.*.*.*.*.*.*.*.",
"*.*.*.*.*.*.*.*.2.f.2.*.*.*.*.*.>.*.*.*.*.*.T > w q q q q q q q q q 0 : T *.*.*.*.*.*.*.*.*.*.*.*.*.*.*.*.*.*.*.*.*.*.*.*.*.*.*.",
"&.&.&.&.&.&.&.&.&.&.&.&.&.&.&.&.*.&.&.&.&.+.6 - q q q q q q q q q q q - 6 +.&.&.&.&.&.&.&.&.&.&.&.&.&.&.&.&.&.&.&.&.&.&.&.&.&.&.",
"&.&.&.&.&.&.&.&.&.&.&.&.&.&.&.&.y.&.&.&.&.+.> - 0 q q q q q q q q q 0 - 6 +.&.&.&.&.&.&.&.&.&.&.&.&.a.a.a.*.&.&.&.&.&.&.&.&.&.&.",
"%.%.%.*.%.%.%.%.%.%.%.%.%.%.%.y.R.y.%.%.%.+.2 @ > : : : : ; : : : : > # T &.%.%.%.%.%.%.%.%.%.%.%.f..X@X.Xf.%.%.%.%.%.%.%.%.%.%.",
"%.%.*.v.*.%.%.%.%.y.%.%.%.%.%.f.W.f.%.%.%.%.^ t P Y Y Y L O L Y Y Y P t ~ %.%.%.%.%.%.%.%.%.%.%.a..X&X&X&X.Xa.%.%.%.%.%.%.%.%.%.",
"%.%.2.M.2.%.%.%.y.P.y.%.%.%.a.W.OXW.f.y.y.%.O.# > : : : : ; : : : : > # O.%.%.%.%.%.%.%.%.%.%.y.}.&X&X&X&X&X.Xa.%.y.%.%.%.%.%.%.",
"r.a.M.C.M.a.r.r.a.}.a.r.r.a.W.OX#XOX X.X}.a.O.> 0 q q q q q q q q q 0 > O.%.r.r.r.r.r.r.r.r.r.y.@X&X&X&X&X&X&X_.h.R.t.r.r.r.r.r.",
"t.M.C.C.C.M.a.a..X&X.Xa.a.W.OX#X#X#X#X#X&X}.@.> q q q q q q q q q q q > O.e.e.e.e.e.e.e.e.e.e.t.}.&X&X&X&X&X}.h.R.s.e.e.e.e.e.e.",
"t.B.C.C.C.C./.@X&X&X&X@X XOX#X#X#X#X#X#X#X|.@.> 0 q q q q q q q q q 0 > @.` ` ` ` ` ` ` ` ` ` ` s.}.&X&X&X@Xs.e.r.` ` ` ` ` ` ` ",
"t.M.C.C.C.(.&X&X&X&X&X&X&X#X#X#X#X#X#X#X&X}.=.2 > > > > > > > > > > > 8 c.r.` ` ` ` ` ` ` ` ` ` ` d.@X&X&X Xi.` ` ` ` ` ` ` ` ` ",
"` y.M.C.*X@X&X&X&X&X&X&X&X&X@XOX#X#X#X&X@Xd.~ Q Q Q Q Q Q Q Q Q Q Q O.c.t.` ` ` ` ` ` ` ` ` ` ` ` i. X#X#X#XW.i.` ` ` ` ` ` ` ` ",
"` ` y.m.s.d.}.&X&X&X&X&X&X@Xk.W.OX|.@X&X}.r.` ` ` ` ` ` ` ` ` ` ` ` ` r.` ` ` ` ` ` ` ` ` ` ` ` r.W.#X#X#X#XOXW.r.` ` ` ` ` ` ` ",
") ) { v.{ ` u.@X&X&X&X&X&X&X}.s.Q.i.u.P.u.) ) ) ) ) ) ) ) ) ) ) ) ) ) ) ) ) ) ) ) ) ) ) ) ) ) ) r. X#X#X#X#X#X Xi._ ) ) ) ) ) ) ",
") ) ) [ ) ) { @X&X&X&X&X&X&X@Xu.L.[ _ [ _ ) ) ) ) ) ) ) ) ) ) ) ) ) ) ) ) ) ) ) ) ) ) ) ) ) ) ) [ Q.OX#X#X#X#X#XW.i._ ) ) ) ) ) ",
"( ( ( ( ( ( { }.&X&X&X&X&X&X}.{ [ ) ( ( ( ( ( ) [ ) ( ( ) { { { { ) ( ( ( ( ( ( ( ( ( ( ( ( ( ( ) p.W.OX#XOX|.@X&XW.u.) ( ( ( ( ",
"( ( ( ( ( ( ( u.}.@X@X@X@X}.u.( ( ( ( ( ( ( ( [ Y.[ ( ) p.m.B.B.}.u.[ ) ( ( ( ( ( ( ( ( ( ( ( ( ( ) p.Q.}.Q.u.s.@X.XY.[ ( ( ( ( ",
"( ( ( ( ( ( ( ( [ { u.u.u.[ ( ( ( ( ( ( ( ( ( p.`.u.) p.M.C.C.(.&X@X}.u.( ( ( ( ( ( F ( ( ( ( ( ( ( ( [ [ [ [ P.`.u.[ ( ( ( ( ( ",
"F F F F F F F F ( } Q.}.Q.} ( F F F F F F ( } }.&X}.d.m.C.C.(.&X&X&X&X}.} ( F F F V F F F F ] F F F F F F F ( } u.[ ( F F F F F ",
"V V V V V V V V } Q.OX#XOXQ.} V V V V V ( } }.&X&X&X@XC.C.C.&X&X&X&X&X&X`.[ V V V V V V V ' L.] V V V V V V } `.@X`.} V V V V V ",
"S S S S S S S ' T.OX#X#X#XOXT.' V V V ' } }.&X&X&X&X&X(.C.C.&X&X&X&X&X&X.X] S S S S S S V } T.} V S S S S ] `.&X&X&X`.] S S S S ",
"S S S S V ' V ' J.~.~.#X#X#X{.~ d d ' Y.`.&X/././.&X&X&XV.C.&X&X&X&X&X&X`.' S S S S S V [ Q.OXQ.} V S S S ] .X&X&X&X.X] S S S S ",
"Z Z Z Z } Y.} ! 9 9 8 ~.#XOXJ.9 % 4 d ' } F.8 7 8 /.&X}.u.n.).@X&X&X&X`.} Z Z Z Z Z S [ T.OX#XOXT.[ S Z Z ' `.&X&X&X`.' Z Z Z Z ",
"Z Z Z ' Y.@XY.~ % X 9 ~.OXT.~ % X * d Z S ! 2   8 /.`.} S ' ' } `..X`.} Z Z Z Z Z ' [ T.OX#X#X#XOXT.[ ' Z Z [ `..X`.} Z Z Z Z Z ",
"Z Z A A ] Y.] d * + z.{.T.] d * + W D Z Z d 5 . b._.] Z Z Z Z Z / ' / Z Z Z / Z / K.T.OX#XOX#X#X#XOXT.K.V Z A / ' / Z Z Z Z Z Z ",
"C C C C Z / Z D W o W ! ! d p I o K d d d p u . J.] Z C C C C C C Z C C C / G./ Z V ..T.OX#X#X#XOXT...V A C C C Z C C C C C C C ",
"C C C C C C C C f & > > > > > > ; > > > > > > 3 G.V C C C C C C C C C C A ] n.] A C A X.|.#X#XOXT.] A C C C C C C C C C C C C C ",
"C C V / V C C C f > 0 q q q q q q q q q q q 0 > ! C C C C C C C C C C C ] n.C.n.] A ] `.&X&X#XT.] C C C C C A C C B C B C C C C ",
"C ] n.M.n.] C B f > q q q q q q q q q q q q q > f B B B B B B B B C S ] n.C.C.C.n.} _.&X&X&X.X..C B B B C ' K.' C B B B B B B B ",
"] n.C.C.C.n.] C s > 0 q q q q q q q q q q q 0 > s l l l l l l l l A G.n.C.C.C.C.C.n.(.&X&X&X.XJ l l l l H K. XK.H l l l l l l l ",
"B.C.C.C.C.C.!.Z s # > > > > > , , > > > > > > 4 s l l l l l l l l l A ] n.C.C.C.n.} `.&X&X&X`.J l l l l l | K.| l l l l l l l l ",
"C.C.C.C.C.C.M.A l a s s s s d v.!.~ d s s s s a l l l l l l l l l l l l / n.C.n./ B | `..X`.| l n l l l l l G l l l l l l l l l ",
"B.C.C.C.C.C.!.A n l l l l l l X..X`.I.G l l l l n n A A A n n n n n n n n / !./ n n n H H H n n n n n n n n n n n n n n n n n n ",
"/ !.C.C.C.!./ n v v v v v n G I.P.| G n v v v v n / !.M.!./ n v v v v v v A G.A v v v v v v v v v v v v v v v v v v v v v v v v ",
"n / !.M.!./ n c c c c c c c n G G n c c c c c n / n.C.C.C.n./ n c c c c c v C v c c c c c c c c v v v c c c c c c c c c c c c c ",
"c v C C C v c c c c c c c c c c c c v G G G n C !.C.C.C.C.C.!.C c c c c c c c c c c c c c c c c c c c c c c c c c c c c c c c c ",
"c c c c c c c c c c c c c c c c c c J U.Q.U.J C M.C.C.C.C.C.M.z c c c c c c c c c c c c c c c c c c c c c c c c c c c c c c c c ",
"c c c c c c c c c c c c c c c c c J U.OXOXOXU...!.C.C.C.C.C.!.M c c c c c c c c c c c c c c c c c c c c c c c c c c c c c c c c ",
"c k k k k k k k k k k k k k k k n U.OX#X#X#XOXU...!.C.C.C.!...M n c k k k k k k k k k k k k k k k k k k k k k k k k k k k k k k ",
"n c k k h h k k k k k k k k k k n Q.#X#X#X#X#XQ.N J F.M.!.X.U.Q.U.H c k k k k k k k k k k k k c b c k k k k k k k k k k k k k k ",
"A.b h h h h h h h h h h h h h h G U.OX#X#X#XOXU.b k n n H U.OXOXOXU.b h h h h h h h h h h h h b l.b h h h h h h h h h h h h h h ",
"b h h h h h h h h h h h h h h b A. .U.OX#XOXU.G h h h h b Q.OX#XOXQ.b h b n b h h h h h h h h h b h h h h h h h h h h h h h h h ",
"h h h h h h h b b b h h h h h G U.H H U./.U.G h h h h h b U.OXOXOXU.b H D.M.F.H h h h h h h h h h h h h h h h h h h h h h h h h ",
"g g g g g h N U.Q.U.N h h h N U. XU.H | !.| h g g g g g h N U.Q.U.N b F.C.C.C.F.c h h h g g g g g g g g g g g g g g g g g g g h ",
"g g g g h N U.OXOXOXU.N b N U.OX#XOX}.^.(.!.M h g g g g g h m b m h b M.C.C.C.M.b g g g g g g g g g g g g g g g g g g g g g h m ",
"j j j j m U.OX#X#X#XOXQ.U.U.+X#X#X#X#X%X*XC.F.M m j j j j j j j j j m D.C.C.C.D.m j j j j j j j j j j j j j j j j j j j j j M D.",
"j j j j m Q.OX#X#X#XOXQ.N N U.OX#X#X%X(.C.C.C.D.Z.x j j j j j j j j j M D.M.D.M j j j j j j j j j j j j j j j j j j j j j x Z.C.",
"j j j j m Q.OX#X#X#XOXQ.m j N }.#X#X(.C.C.C.M.M c j j j j j j j j j j j c m c j j j j j j j j j j j j j j j j j j j j j j j M M."
};
