/* XPM */
static const char *synthwave_grid[] = {
/* columns rows colors chars-per-pixel */
"64 64 28 1 ",
"  c #050014",
". c #190A28",
"X c #B92D00",
"o c #BF3C00",
"O c #CD4105",
"+ c #C44B00",
"@ c #CA5A00",
"# c #D3500A",
"$ c #D85F0F",
"% c #CF6905",
"& c #D5780A",
"* c #DE6E14",
"= c #E37D19",
"- c #DA870F",
"; c #E98C1E",
": c #E09614",
"> c #E5A519",
", c #EBB41E",
"< c #EE9B23",
"1 c #F4AA28",
"2 c #F9B92D",
"3 c #FFC832",
"4 c #EB1E82",
"5 c #FF3296",
"6 c #821EEB",
"7 c #9632FF",
"8 c #00B4EB",
"9 c #00C8FF",
/* pixels */
"                                                                ",
"................................................................",
"                                                                ",
"................................................................",
"                                                                ",
"................................................................",
"                             ,,,,,,,                            ",
"...........................33322222333..........................",
"                          ,,>>:::::>>,,                         ",
".........................32211<<<<<11223........................",
"                        ,>>:--&&&&&--:>>,                       ",
".......................3321<<;=====;<<1233......................",
"                       ,>:--&%%@@@%%&--:>,                      ",
"......................3321<;=**$$$**=;<1233.....................",
"                      ,>:-&%%@+ooo+@%%&-:>,                     ",
"......................321<;=*$##O##$*=;<123.....................",
"                      ,>:-&%@+oXXXo+@%&-:>,                     ",
"......................321<;=*$##O##$*=;<123.....................",
"                      ,>:-&%%@+ooo+@%%&-:>,                     ",
"......................3321<;=**$$$**=;<1233.....................",
"                       ,>:--&%%@@@%%&--:>,                      ",
"555555555555555555555553321<<;=====;<<12335555555555555555555555",
"                        ,>>:--&&&&&--:>>,                       ",
".........................32211<<<<<11223........................",
"                          ,,>>:::::>>,,                         ",
"...........................33322222333..........................",
"                            8,,,,,,,8                           ",
"............................975.97.59...........................",
"                           86 4 8 64 8                          ",
"9999999999999999999999999999795999795999999999999999999999999999",
"                         8 6  4 8 6 4  8                        ",
".........................9.7.5..9.7..5.9........................",
"                        8 6  4  8  6 4  8                       ",
".......................9..7..5..9..7..5..9......................",
"                      8  6   4  8  6  4   8                     ",
"......................9..7..5...9..7...5..9.....................",
"                     8  6   4   8  6   4   8                    ",
"....................9...7...5...9...7...5...9...................",
"6666666666666666666866666666466686666666466668666666666666666666",
"...................9...7...5....9...7....5...9..................",
"                  8   6    4    8   6    4    8                 ",
".................9....7....5....9....7....5....9................",
"                8    6     4    8    6    4     8               ",
"................9....7....5.....9....7.....5....9...............",
"               8    6     4     8    6     4     8              ",
"..............9.....7.....5.....9.....7.....5.....9.............",
"4444444444444844444644444444444484444464444444444448444444444444",
".............9.....7.....5......9.....7......5.....9............",
"            8     6      4      8     6      4      8           ",
"...........9......7......5......9......7......5......9..........",
"          8      6       4      8      6      4       8         ",
"..........9......7......5.......9......7.......5......9.........",
"         8      6       4       8      6       4       8        ",
"........9.......7.......5.......9......7........5.......9.......",
"       8       6        4       8       6       4        8      ",
"9999999999999997999999959999999999999999799999999599999999999999",
"      8       6        4        8       6        4        8     ",
".....9........7........5........9.......7.........5........9....",
"    8        6         4        8        6        4         8   ",
"....9........7........5.........9........7.........5........9...",
"   8        6         4         8        6         4         8  ",
"..9.........7.........5.........9........7..........5.........9.",
" 8         6          4         8         6         4          8",
".9.........7.........5..........9.........7..........5.........9"
};
