/* XPM */
static const char *wall2[] = {
/* columns rows colors chars-per-pixel */
"64 64 90 1 ",
"  c #070C1B",
". c #080D1C",
"X c #090E1D",
"o c #0A0F1E",
"O c #0B101F",
"+ c #0C1120",
"@ c #0D1221",
"# c #0E1322",
"$ c #0F1423",
"% c #101524",
"& c #111625",
"* c #121726",
"= c #131827",
"- c #141928",
"; c #151A29",
": c #161B2A",
"> c #171C2B",
", c #181D2C",
"< c #191E2D",
"1 c #1A1F2E",
"2 c #161B34",
"3 c #171C35",
"4 c #181D36",
"5 c #191E37",
"6 c #1A1F38",
"7 c #1B202F",
"8 c #1C2130",
"9 c #1B2039",
"0 c #1C213A",
"q c #1D223B",
"w c #1E233C",
"e c #1F243D",
"r c #20253E",
"t c #21263F",
"y c #252A3E",
"u c #200C48",
"i c #220E4A",
"p c #230F4B",
"a c #24104C",
"s c #25114D",
"d c #26124E",
"f c #27134F",
"g c #281450",
"h c #291551",
"j c #2A1652",
"k c #2B1753",
"l c #2D1955",
"z c #2E1A56",
"x c #2F1B57",
"c c #301C58",
"v c #222740",
"b c #232841",
"n c #242942",
"m c #252A43",
"M c #272C40",
"N c #262B44",
"B c #272C45",
"V c #282D41",
"C c #292E42",
"Z c #2A2F43",
"A c #282D46",
"S c #292E47",
"D c #2A2F48",
"F c #2B3044",
"G c #2D3246",
"H c #2B3049",
"J c #2C314A",
"K c #2D324B",
"L c #2F3448",
"P c #2E334C",
"I c #2F344D",
"U c #303549",
"Y c #32374B",
"T c #30354E",
"R c #31364F",
"E c #33384C",
"W c #34394D",
"Q c #353A4E",
"! c #323750",
"~ c #333851",
"^ c #343952",
"/ c #353A53",
"( c #003264",
") c #3C4164",
"_ c #3D4265",
"` c #006496",
"' c SteelBlue",
"] c #4783B5",
"[ c #4B87B9",
"{ c #0096C8",
/* pixels */
"------->---@-----<---<----------------------%-------------@-----",
"-KKKKKKRKKKKKKKK-KKKKKKKKKKKKnKK-KKKKKKKKKKKKKKK-KKKKKKKKKHKKKKK",
"-NeGGGWWWGGGVGwK-K$$$$$$$$%$$$$K-K$$$$$$$$$@$$%K-H9wwwwwwwtwwwwK",
"@Kwwww2wwwwwwwwK%K@$$$$$$$$$$o$K-H$$$$$$$=$$$$$K>K5wwwwwwbwwwwwB",
"-Kww9wwwwwwww5wK-K$$$@$$$$$$$$$P-K$$$$$$$$$$$%$K-KwbwwwwwwwwwwwK",
"-KwwwwwwwwwwwwwA-K$$$$$$$$$$$$$K-K$$$$-$$%$$$$$K-Kwwwww5wwwvwwwK",
"@Knwnwwwwww3wwwK-K$$$$$$$$$%$$$K-K$$$$$$$$$$$$$K-Bwwwnwnww3wwwnK",
"-NwwnwwwwwwqwwwK-K$$$$$$$$$$$$$K-K$$$$$$$$$$$$$K-KwwwNwwwwwwt3wK",
"-KwGyGUGGGGGGGwK-K$$$O$$$$$$$$$K-K$$$$$$$$$$$$$K-KwNwNvwwwwwwwwK",
"-Kwwwwwwwwwwwww^-K$$$$$$$$$$$$$K-K$$$$$$$$$$$$$K-Kwwwwwwwwwww5wK",
">KwwwwwwwwwwwwwK%~$$$$$$$$$$$$$K-K$$$%$$-$$$$$$K-KnwtwwwwwwwwwwK",
"7KwwwwwwwwwwwwwK-K$$$$$@$$$@$@%K-K$$$$$$$$$$$$$K-Bwww5wwwwwwwwwK",
"-Kwww9wwwwwwww2K-K$$@$o$o$$$$$-K-K$$$$$-$$$$$$$K-Kwwb3wwwwwqwwwK",
"-KwwwwwwwwwwwwwK-I$$$$$$$$$$$$$K-K$$$%$$$$$$$$$K-KwwwwwwwwwwwwwK",
"@KwGGGVGVGGGGGwR-K$$$$$$$% $$$$K-K$>$$$$$%-$$-$K-KwwwwwbwwnwwwwK",
"-KKKKKKKKKKKK^KK-KKKKKKK~KKKIKKK-KKKKKKKKKKKKKKK-KKAKKKKHBKKKKKK",
"-------------------%---------------------@-------------7-----<--",
"-KKKKKKK~KKKKKKK-K~KK^KKAKKAKKKK-KK!KKKKKKKK!KKK-KKKKKKKKKKKKKKK",
"-KgGGGGGGLGGGGgK-KgxgggggggggggK-KgggggggggigggK-K$GGWMGVUGGGG$K",
"@KgggggggggggggK-KgggggggggggggK-KgggggggggggggK-K$$$$$$$$$$$$$K",
"-KgggggggggggggA-KgggggggggggggK-KgggggggggggggK-A$$%$$$$$$$$$$A",
"-KgggggggggggggA-KggggggfgggixgK-KxggiggfggggggK-K$$$$=@$$$$$$$K",
"-KgggggfggggiggK-KfigggggggggggK-KggggxggggggggK-N$$$$$$$$$$$$$K",
"-KgggggggggggggK-Kggg'''g'''gggK-KgggggggggggggK-K$$$$$$$o$$-$$K",
"-KxFGGGGGGWGGGgK-K)))''')''')))^-RiggggggggcgggK-K$GGGGGGGGGGG$K",
"%KgggggfgggggggK-Kggg'''g'''gggK-KggggggggggfggK-K$$$$$$$$O$$@$K",
"-!ggggxggggggggK-KgggggggggggggK-KgggggggggggggK-A$$$$$$$$$$$$$K",
"-KgggggggggggggK-KgggggggggggggK-KggggfxgggggggK-K$$$$$$$$$$$$$K",
"-Kggxgggggggggg^-KgggggggggggggK-KgggggggggggggK-K$$$$$$$$$$%$$^",
"-KgggggggggggggK-KxgiggggggggggK-KgggggggggggggK%K$$$$$$$$$$$$$K",
"-KgGGVGGGGGLGMgK-KgggggggggggggK-KggfggfgxgggggK-K$GVGUGGGGGGG$K",
"-KKKKKKKKKKKKKKK-KKKKKKKKK^KKKKK-KKKHKKKKKKKKKKK-KKKKKKKKKKKKKKK",
"------>---------------<-----------------------------------------",
"-KKKKKKKKKKKKKKK-KKKKAKKKKKKKKKK-KKKKKK~KKKKP!KN-KKKAKKKKKKKKIKB",
"-KwwqwwwwwwwwwwK-K$$$$$O$$$$$$ K@KwwwtwwqN5wwwwK-K$Oo$$$$$$$$$$K",
"7Kwwwwwwwww9wwwK-K$$$$$$$$ $$$$K-Kwwwwww5wwwbwwK-K$$$$$$$@$$$$$K",
"-KqwwwwwwwNwwwwK-K$$$o$$$$%$$$%n-Kwt5wwwwwwwwwwK-K$$$$$$$$$@$$$K",
"-KwwwwwwwwwwwwwK-K$$$$${{{$$$$$K-KwnwwwwwwwwwwwK-K$$$$$$$$$$$$$K",
"-Kw9wwwwwwwwwwwA-K$$$${```{$$>$K-Kwwwwww5wwwwwwK-K$$$$$$$$$$$$$K",
"-Kwwwwww3wwwwwwK-K$$${``(``{$$$K-Kwwwwwwwww2wwwK-K$$$$$>$$o$$$$K",
"%KbwwwwwwwwwwwwR-K$$${`(((`{$$$~-Kww9w5wwwwwwwwK-~$$$$$-$$$$$$$K",
"-Kwwwwwwwwwwwnw~-K-$${``(``{$$$K-Kwwnwwwwqww5wtK-K$$$-$$$$>$$$$K",
"-Kwwwwwwwwwwwww~8K$$O${```{$$$$K-Kwwwww5ewwwwwwK-K=%$$ $$$$$$$$K",
"-KwwwwwwwwwwwwwK<K$$$$${{{$$$$$K-KwwwwwwwwwwwwwK-K$$$-$-$$$$$$$K",
"-KNwwwwwwwwwwwwK-K$$$$$$$$$-$$$K-Kwww9wewwwwwwwK-K$$$$$$$$$$$$$K",
"-KwwwwwwwwwwwwwK=K$$$$$-$$$$$$$K-Kwwww3wwwwwwweK-K$$$$%$-$$$$$$K",
"-KwwwwwwwwwwwwwK-K$$$$$@$$$$$$$K-Kwwwwwwwww3wwwK-K$$$$$$$$$$$$$K",
"-KKKKKKKKKKDKKKK-KKKKK!KKKKKDIKK-KKKKKKKKKKIKKKK-KKKKKKKKKKKKKKK",
"---------------------------->-@=------------<---------->--------",
"-KKK^KKDKKKKKK~K-KDKKKKKKKKKKKKK-KKK^KKKKKKK^KKK-KKKKKKKAKKKKKKK",
"-Kwv3wqwwwwwwwwK-RwwwwqwwwwwwwwK-K$GGGGGGGEGGG$K-K%$$$$$$$$$$$$K",
"-KnwwwwwwwwwwwwK-KwwqwwwwwwwwwwK-K$$$$$$$$$$$$$K$H$$$$$$$$$$$$$K",
"-KwwnwwnwwwwwwwK-KwwwwwwwwwbwwwK-K$$$ $$$$$$$$$K-K$$$$o$$$$$$$-N",
"-Kwwwww9wwwwwwwK-K9w2wwwwwwwwwwK-Ko$$$$$>$$$$$$K-K$$$$$$$$$$$>$K",
"-RwwtwwwwNwwwwwK-KwwwwwwwwwwwwwK-K$$$$$$$$$$$$$K@K$$$$$$$$$$$$$K",
"-KwwnwwwwwwwwwwK-KwwwqwwwwwwwwwK-K$$$$$$$$$$$$$K-K$$$'''$'''$@$K",
"-Kwwwwwwww3wwwwK-AwwwwwwwwwwwwwK-K$GGGGGVGGWGG$K-K)))''')''')))K",
"-AwwnwwwwwwwwwwK-KwwwwwwwwwwwwNK-K$$$$$$$$$$$$oK-^$$$''[$'''$$$A",
"-KbwwwwwwwwwwwvK-KwwwwwwwwwwwwnK-K$$$$-$$$$$-$$K-K$$$$$$$$$$$$$K",
"-Kwwwwww5www3wbK%~wwwwwwwwwwwwwK-K$$$O $$$%$$$$K@K@$$>$$$$O>$$$K",
"-Kwwwwwww3wwwwwK-Kwww5ww6wwwwwwK-N$$$$$$$$$$$$$K-K$$$$$$$$$$$$$K",
"-KwwwwwwwwwwwwwK-Kwwwwww9wwwwwwK-K$$%$$$$$$$$$$K-K$$$o$$$$$$$$$K",
"<KwwwwwwwwwwwwwN-Kwww5wwwwwwwwwK-K$GGGGGGGGGGG$K-K$$$$$$$$$$$$$K",
"-KKKKKKRKKK!BKKK-KKKKKKKKKKKKKKK-BKKKKKKKKKKKKBK%KKRAKKKKKKKKKHK"
};
