/* XPM */
static const char *wall3[] = {
/* columns rows colors chars-per-pixel */
"64 64 16 1 ",
"  c #141419",
". c #1E1E23",
"X c #242429",
"o c #25252A",
"O c #26262B",
"+ c #28282D",
"@ c #2A2A2F",
"# c #2D2D32",
"$ c #2E2E33",
"% c #2F2F34",
"& c #303035",
"* c #323237",
"= c #343439",
"- c #3C3C41",
"; c #46464B",
": c #5A5A5F",
/* pixels */
".............................#######............................",
".............................#######............................",
"............*................#######............................",
".............**..............#######............................",
"...............**............#######............................",
".....***********************.#######.***********************....",
".....*@===================@*.#######.*XXXXXXXXXXXXXXXXXXXXX*....",
".....*@@@@@@@@@@@@@@@@@@@@@*.#######.*X%%%%%%%%%%%%%%%%%%%X*....",
".....*@===================@*.#######.*XXXXXXXXXXXXXXXXXXXXX*....",
".....*@===================@*.#######.*X%%%%%%%%%%%%%%%%%%%X*....",
".....*@@@@@@@@@@@@@@@@@@@@@*.#######.*XXXXXXXXXXXXXXXXXXXXX*....",
"...*.***********************.#######.***********************....",
"....*........................#######............................",
";;;;;*;;;;;;;;;**;;;;;;;;;;;;#######;;;;;;;;;;;;;;;;;;;;;;;;;;;;",
"*********---********--*******---####***---*******---*******---**",
"********-:---*****-:---*****-:---###**-:---*****-:---*****-:-***",
"********-----*****-----*****-----###**-----*****-----********--*",
"*********----*****-----*****-----###**-----*****-----*****-----*",
"**********--*******---*******---####***---*******--********---**",
"          *                  #######                            ",
"...........*........*........#######............................",
".....***********************.#######.***********************....",
".....*@@@@@@*@@@@@@*+@@@@@@*.#######.*#####################*....",
".....*@@@@@@@*@@@@*@@@@@@@@*.#######.*#####################*....",
".....*@@@@@@++@@+*++@@@@@@+*.#######.*#####################*....",
".....*@@@@@@++++@*++@@@@@@+*.#######.*#####################*....",
".....*@@@@++++++*@++@+@@@@@*.#######.*#####################*....",
".....*@@@@@++++*@@++++@@@@@*.#######.*###############*#####*....",
".....*++++++@@+*@@@@++++@@@*.#######.*#######*#######*#####*....",
".....*@+++++@@*+@@@@++++@@@*.#######.*######*#######*######*..**",
".....*@@++@@@*++++@+++@+@@@*.#*#####.*#####*########*######***..",
".....*@@@@@@@*++++++++@@@@@*.#*#####.*####*#########*####***.*..",
".....*+++@++*+++++++++@@@@@*.##*####.*####*#########*##**##**...",
".....*++@@@@++++@@++++@@@@+*.##*####.*###*#########*#**####**...",
".....*@@@@@@@@++@@@@++@@+++*.###*###.*##*##########**######*....",
".....*@@@@@@@@++@@@@++@@+++*.###*###.*#*##################**....",
".....*@@@@++@@@@+++@@@@@++@*.####*##.**##################*#*....",
".....*@@@@@+@@@@++@@@@@@@+@*.####*##.*###################*#*....",
".....*@@@@++++@+++++@@+@@@@*.#####*#.*##################*##*....",
".....*@@@@+++++++++++@@+@@@*.#####*#.*#####################*....",
".....*@@@@+++@@@@@@@@+++@@@*.######*.*#####################*....",
".....*@@@@+++@@@@@@@@@++@@@*.######*.*#####################*....",
".....*@@++++@@@@@@@@@+++@@@*.#######**#####################*....",
".....***********************.#######************************....",
".............................#######............................",
";;;;;;;;;;;;;;;;;;;;;;;;;;;;;#######;;;;;;;;;;;;;;;;;;;;;;;;;;**",
"*********---*******---*******---####***---*******---*******-****",
"********-:---*****-:---*****-:---###**-:---*****-:---*******---*",
"********-----*****-----*****-----###**-----*****-----*****-----*",
"********-----*****-----*****-----###**-----*****----******-----*",
"*********---*******---*******---####***---*******---*******---**",
"*******                      #######                *           ",
".......*******...............#######................*...........",
".....***********************.#######.***********************....",
".....*XXXXXXXXXXXXXXXXXXXXX**#######.*X*******************X*....",
".....*X###################X*.*######.*XXXXXXXXXXXXXXXXXXXXX*....",
".....*XXXXXXXXXXXXXXXXXXXXX*.#*#####.*********************X*....",
".....*X###################X*.#*##*##.*********************X*....",
".....*XXXXXXXXXXXXXXXXXXXXX*.##*#*##.***XXXXXXXXXXXXXXXXXXX*....",
".....***********************.###**##.***********************....",
".............................####*#**...*.......................",
".............................####**#....*....**.................",
".............................###***#*....****...................",
".............................##*##**.*****......................"
};
