/* XPM */
static const char *wall4[] = {
/* columns rows colors chars-per-pixel */
"64 64 209 2 ",
"   c #131529",
".  c #18102E",
"X  c #13192B",
"o  c #181A2D",
"O  c #1A0F30",
"+  c #161631",
"@  c #191431",
"#  c #151B32",
"$  c #1A1B32",
"%  c #1E1B39",
"&  c #281B37",
"*  c #2A1C39",
"=  c #251C36",
"-  c #331F3D",
";  c #1B2133",
":  c #1C2439",
">  c #15213D",
",  c #212236",
"<  c #23233A",
"1  c #2D233D",
"2  c #30233F",
"3  c #241644",
"4  c #221D41",
"5  c #2C134D",
"6  c #261F4A",
"7  c #2A1E4A",
"8  c #381F40",
"9  c #341F46",
"0  c #301451",
"q  c #341B56",
"w  c #1A2543",
"e  c #1A2846",
"r  c #13264A",
"t  c #182A4D",
"y  c #142B55",
"u  c #1A3157",
"i  c #252344",
"p  c #29254B",
"a  c #2A2446",
"s  c #342441",
"d  c #3B2344",
"f  c #3E2749",
"g  c #3F2848",
"h  c #2D2252",
"j  c #2D245A",
"k  c #312555",
"l  c #32235B",
"z  c #34295A",
"x  c #332B57",
"c  c #3D1B6C",
"v  c #1B3564",
"b  c #173468",
"n  c #133B7D",
"m  c #123676",
"M  c #162E60",
"N  c #392763",
"B  c #2D2C6D",
"V  c #421F46",
"C  c #442449",
"Z  c #4A244C",
"A  c #432046",
"S  c #4D2651",
"D  c #4C2B50",
"F  c #532651",
"G  c #522B54",
"H  c #5B2D58",
"J  c #61225C",
"K  c #451A79",
"L  c #49197B",
"P  c #431B75",
"I  c #422D73",
"U  c #46287C",
"Y  c #49307D",
"T  c #552563",
"R  c #6D2D63",
"E  c #742C65",
"W  c #782D68",
"Q  c #6D3164",
"!  c #79326B",
"~  c #80336F",
"^  c #853572",
"/  c #8A3675",
"(  c #9B337D",
")  c #953279",
"_  c #8C2E6F",
"`  c #A2337F",
"'  c #143E86",
"]  c #3C348D",
"[  c #561B84",
"{  c #4B2C83",
"}  c #4E2A8A",
"|  c #4F3187",
" . c #5A2E98",
".. c #5D369E",
"X. c #573394",
"o. c #5E2087",
"O. c #62369E",
"+. c #4D3AA9",
"@. c #6225AA",
"#. c #6134A3",
"$. c #6532AB",
"%. c #6935AA",
"&. c #6C24B7",
"*. c #6E24B8",
"=. c #6B33B1",
"-. c #6C39B5",
";. c #6C34B7",
":. c #723BBA",
">. c #7025BB",
",. c #1A4284",
"<. c #134698",
"1. c #114EAA",
"2. c #0E54BB",
"3. c #1353B4",
"4. c #0F4FAA",
"5. c #3348B3",
"6. c #7F3DCB",
"7. c #7A39C5",
"8. c #7A32CD",
"9. c #0E57C3",
"0. c #1758C3",
"q. c #195DD9",
"w. c #2254C7",
"e. c #1465DB",
"r. c #0C69DE",
"t. c #0C6BE9",
"y. c #156CE7",
"u. c #0E6EF2",
"i. c #146EF9",
"p. c #166EF3",
"a. c #0B74FC",
"s. c #0E76FA",
"d. c #1877FF",
"f. c #246FFF",
"g. c #2170FF",
"h. c #327CFF",
"j. c #3567F4",
"k. c #4D49CA",
"l. c #6C40D4",
"z. c #6C4DE8",
"x. c #6E59FF",
"c. c #4C6CFF",
"v. c #9F3982",
"b. c #842480",
"n. c #A23481",
"m. c #A43A86",
"M. c #AC3988",
"N. c #BA3D92",
"B. c #B63191",
"V. c #8C26A2",
"C. c #A52BA9",
"Z. c #C13995",
"A. c #CC3B9A",
"S. c #CE3992",
"D. c #D23D9E",
"F. c #D93EA5",
"G. c #DF34B2",
"H. c #E73FAC",
"J. c #F23AB8",
"K. c #CB419C",
"L. c #D441A1",
"P. c #DA42A4",
"I. c #E344AB",
"U. c #EA45AF",
"Y. c #F042AF",
"T. c #EA44B0",
"R. c #F244B5",
"E. c #FB44B9",
"W. c #F948BB",
"Q. c #F745B8",
"!. c #813BD4",
"~. c #853CDA",
"^. c #8728C7",
"/. c #AF30DA",
"(. c #AE30D9",
"). c #8B2EEC",
"_. c #8C3DE4",
"`. c #963EE9",
"'. c #8C2EF0",
"]. c #953DF2",
"[. c #9731F5",
"{. c #A23AF6",
"}. c #D231C2",
"|. c #E633C1",
" X c #8640DB",
".X c #8D42E5",
"XX c #8D44EC",
"oX c #9443EA",
"OX c #9A44F4",
"+X c #9D43F9",
"@X c #9A48FB",
"#X c #915DFF",
"$X c #A443FD",
"%X c #AD45FF",
"&X c #AA49FF",
"*X c #A44DFF",
"=X c #B446FF",
"-X c #B34BFF",
";X c #BB49FF",
":X c #B844FF",
">X c #B753FF",
",X c #876BFF",
"<X c #8673FF",
"1X c #FF44C1",
"2X c #FF48C4",
"3X c #C549FF",
"4X c #C346FF",
"5X c #0C82FF",
"6X c #2C81FF",
/* pixels */
"%.{ p ; ; ; s Q / R s ; ; ; ; : : t ,.<.,.t p | O.{ p ; ; ; ; : : ; ; ; ; ; ; : : : s R / R s , : ; ; ; ; ; ; : : ; ; ; ; ; ; : ",
"{.=.h $ X $ d n.F.( d o X X o ; ; t 1.r.3.M j -.`.=.h # X X o ; ; o X X X X o ; ; $ d ( F.( d : ; o X X X X o ; ; o X X X X o ; ",
"4X~.N $ X $ F K.E.B.d o X X X ; ; t 4.a.t.' B ~.=X!.l # X X X ; ; X X X X X X ; ; o C Z.E.Z.C , ; X X X X X X ; ; X X X X X X ; ",
"4X].} 4 X & E I.E.` 8 X X X X ; ; r <.u.a.3.] XX=X!.l # X X X ; ; X X X X X X ; ; o Z A.1XA.Z , ; X X X X X X ; ; X X X X X X ; ",
"&X%X;.j $ 8 n.E.I.E & X X X X ; : y <.u.a.w.+.OX$X=.7 X X X X ; ; X X X X X X ; ; $ Z A.1XA.Z , ; X X X X X X ; ; X X X X X X ; ",
"oX%X_.U 4 C Z.2XL.F $ X X X X ; e n 9.s.q.k.6.$X6.U % X X X X ; ; X X X X X X ; ; o Z A.1XA.Z , ; X X X X X X ; ; X X X X X X ; ",
"!.$X+X .p Z A.2XL.S $ X X X o ; u 3.s.u.5.l.$XOXX.h $ X X X o ; ; o X X X X o ; ; $ C Z.E.D.F < ; o X X X X o ; ; o X X X X o ; ",
"-.$X$X-.z G L.2XL.G , ; ; ; ; : v e.5Xp.5.XX=X.XI < ; ; ; ; ; : : ; ; ; ; ; ; : : : f m.R.I.^ g < ; ; ; ; ; ; : : ; ; ; ; ; ; : ",
"..OX-X7.N G L.2XL.G , ; ; ; ; : v y.5Xg.k.@X%X7.z : ; ; ; ; ; : : ; ; ; ; ; ; : : : 1 R N.U.N.Q s : ; ; ; ; ; : : ; ; ; ; ; ; : ",
"Y .X=X!.N S A.2XL.Z $ X X X o : v e.5Xf.z.&X+X..h $ X X X X o ; ; o X X X X o ; ; o $ s W F.R.m.C $ X X X X o ; ; o X X X X o ; ",
"Y _.=X!.l S A.2XL.Z o X X X X ; u 3.a.g.x.*X@X#.z $ X X X X X ; ; X X X X X X ; ; X X $ F D.2XK.D $ X X X X X ; ; X X X X X X ; ",
"$.].$X=.k Z A.2XL.Z o X X X X ; e n 9.i.j.x.@X!.| 4 X X X X X ; ; X X X X X X ; ; X X o Z A.2XL.G $ X X X X X ; ; X X X X X X ; ",
".X$X6.U 4 Z A.2XL.Z o X X X X ; : r ' 9.d.c.#X*X:.h X X X X X ; ; X X X X X X ; ; X X o C A.2XL.G o X X X X X ; ; X X X X X X ; ",
"=X$X$.h % Z A.2XL.Z o X X X X ; ; # r <.i.h.<X>X Xl # X X X X ; ; X X X X X X ; ; X X o C Z.2XP.H $ X X X X X ; ; X X X X X X ; ",
";X$X .6 $ Z A.2XL.S $ X X X o ; ; # r <.i.6X<X>X.XN $ X X X o ; ; o X X X X o ; ; o X o d n.E.I.! 1 X X X X o ; ; o X X X X o ; ",
"3X+XX.p < D K.2XP.H < ; ; ; ; : : : v 0.s.h.,X>XoXI < ; ; ; ; : : ; ; ; ; ; ; : : ; ; ; s / U.W.v.f : ; ; ; ; : : ; ; ; ; ; ; : ",
"3X$X..p < f m.W.I.! 2 ; ; ; ; : : e ,.y.s.j.z.&XOXX.h : ; ; ; : : ; ; ; ; ; ; : : ; ; ; s ^ U.W.v.f : ; ; ; ; : : ; ; ; ; ; ; : ",
"-X=X;.h $ * E P.Y.) s o X X o ; ; r <.s.a.0.+.6.OX7.U p $ X o ; ; o X X X X o ; ; o X o s ( Q.T.^ 2 o X X X o ; ; o X X X X o ; ",
"-X;X!.l # $ C ` S._ - X X X X ; : y 4.a.t.<.B | 6.`.7.U % X X ; ; X X X X X X ; ; X X X - ) R.U.^ - X X X X X ; ; X X X X X X ; ",
"-X;X!.l # X * H E F = X X X X ; w m 9.t.2.m w z #.].{.#.6 X X ; ; X X X X X X ; ; X X X = R D.Q.M.C $ X X X X ; ; X X X X X X ; ",
"=X%X=.7 X X $ 1 1 = X X X X X ; e n 9.2.n r # p ..OX$X$.6 X X ; ; X X X X X X ; ; X X X o A n.Q.P.E & X X X X ; ; X X X X X X ; ",
":X_.} % X X X ; ; X X X X X X ; w M n b r # # k :.%X].} % X X ; ; X X X X X X ; ; X X X X * W I.E.n.8 X X X X ; ; X X X X X X ; ",
"].=.z $ X X o ; ; o X X X X o ; ; > > > # X $ N !.%X~.N $ X o ; ; o X X X X o ; ; o X X X $ F K.1XA.F $ X X o ; ; o X X X X o ; ",
"X.I i ; ; ; ; : : ; ; ; ; ; ; : : ; ; ; ; ; ; x -._.=.k : ; ; : : ; ; ; ; ; ; : : ; ; ; ; : C m.R.I.~ d , ; ; : : ; ; ; ; ; ; : ",
"p i : ; ; ; ; : : ; ; ; ; ; ; : : ; ; ; ; ; : a I | I i ; ; ; : : ; ; ; ; ; ; : : ; ; ; ; ; 2 Q N.T.N.Q 1 ; ; : : ; ; ; ; ; ; : ",
": $ X X X X o ; ; o X X X X o ; ; o X X X X o : i i % # X X o ; ; o X X X X o ; ; o X X X X $ C / I.T.) s o o ; ; o X X X X o ; ",
"; X X X X X X ; ; X X X X X X ; ; X X X X X X ; ; X X X X X X ; ; X X X X X X ; ; X X X X X X s ! H.R.( 8 X X ; ; X X X X X X ; ",
"$ X X X X X X $ ; X X X   X X ; ; X X   X X X ; $ X X X X X X $ $ X X X X X X $ ; X X X   X X s ! F.H.` V $ X ; $ X X X X X X ; ",
"O @ @ X @ @ @ % % $ @ @ . @ $ : : $ @ . @ @ $ % % @ @ + X X $ % @ @ @ X @ @ @ % % $ @ @ . @ $ 1 R Z.J.B.J * $ % % @ @ + X X X ; ",
"5 5 5 3 5 5 5 0 5 3 5 5 5 5 5 7 7 5 5 5 5 5 3 5 0 5 5 5 3 3 5 0 5 5 5 3 5 5 5 0 5 3 5 5 5 5 5 7 T B.J.G.b.q 5 5 0 5 5 5 3 % $ ; ",
"L L L K L L L L L K L L L L L K K L L L L L K L L L L L K K L L L L L K L L L L L K L L L L L L o.C.|.}.V.[ L L L L L L P c q h ",
"&.&.&.&.&.&.&.&.&.&.&.&.&.&.&.&.&.&.&.&.&.&.&.&.&.&.&.&.&.&.&.&.&.&.&.&.&.&.&.&.&.&.&.&.&.&.&.*.8.(././.^.>.&.&.&.&.&.&.&.&.@.@.",
"'.'.'.'.'.'.'.'.'.'.'.'.'.'.'.'.'.'.'.'.'.'.'.'.'.'.'.'.'.'.'.'.'.'.'.'.'.'.'.'.'.'.'.'.'.'.'.'.'.[.{.[.'.'.'.'.'.'.'.'.'.).).).",
"&.&.&.&.&.&.&.&.&.&.&.&.&.&.&.&.&.&.&.&.&.&.&.&.&.&.&.&.&.&.&.&.&.&.&.&.&.&.&.&.&.&.&.&.&.&.&.&.&.*.*.*.&.&.&.&.&.&.&.&.&.&.@.@.",
"L L L K L L L L L K L L L L L K K L L L L L K L L L L L K K L L L L L K L L L L L K L L L L L K K L L L L L K L L L L L P c q h ",
"5 5 5 3 5 5 5 0 5 3 5 5 5 5 5 7 7 5 5 5 5 5 3 5 0 5 5 5 3 3 5 0 5 5 5 3 5 5 5 0 5 3 5 5 5 5 5 7 7 5 5 5 5 5 3 5 0 5 5 5 3 % $ : ",
"O @ @ X @ @ @ % % $ @ @ . @ $ : : $ @ . @ @ $ % % @ @ + X X $ % @ @ @ X @ @ @ % % $ @ @ . @ $ : : $ @ . @ @ $ % % @ @ + X X X ; ",
"$ X X X X X X $ ; X X X   X X ; ; X X   X X X ; $ X X X X X X $ $ X X X X X X $ ; X X X   X X ; ; X X   X X X ; $ X X X X X X ; ",
"; X X X X X X ; ; o X X X X o ; ; o X X X X o ; ; X X X X X o ; ; X X X X X X ; ; o X X X X o ; ; o X X X X o ; ; X X X X X o ; ",
": ; ; ; ; ; ; : : ; ; ; ; ; ; : : ; ; ; ; ; ; : : ; ; ; ; ; ; : : ; ; ; ; ; ; : : ; ; ; ; ; ; : : ; ; ; ; ; ; : : ; ; ; ; ; ; : ",
": ; ; ; ; ; ; : : ; ; ; ; ; ; : : ; ; ; ; ; ; : : ; ; ; ; ; ; : : ; ; ; ; ; ; : : ; ; ; ; ; ; : : ; ; ; ; ; ; : : ; ; ; ; ; ; : ",
"; o X X X X o ; ; o X X X X o ; ; o X X X X o ; ; o X X X X o ; ; o X X X X o ; ; o X X X X o ; ; o X X X X o ; ; o X X X X o ; ",
"; X X X X X X ; ; X X X X X X ; ; X X X X X X ; ; X X X X X X ; ; X X X X X X ; ; X X X X X X ; ; X X X X X X ; ; X X X X X X ; ",
"; X X X X X X ; ; X X X X X X ; ; X X X X X X ; ; X X X X X X ; ; X X X X X X ; ; X X X X X X ; ; X X X X X X ; ; X X X X X X ; ",
"; X X X X X X ; ; X X X X X X ; ; X X X X X X ; ; X X X X X X ; ; X X X X X X ; ; X X X X X X ; ; X X X X X X ; ; X X X X X X ; ",
"; X X X X X X ; ; X X X X X X ; ; X X X X X X ; ; X X X X X X ; ; X X X X X X ; ; X X X X X X ; ; X X X X X X ; ; X X X X X X ; ",
"; o X X X X o ; ; o X X X X o ; ; o X X X X o ; ; o X X X X o ; ; o X X X X o ; ; o X X X X o ; ; o X X X X o ; ; o X X X X o ; ",
": ; ; ; ; ; ; : : ; ; ; ; ; ; : : ; ; ; ; ; ; : : ; ; ; ; ; ; : : ; ; ; ; ; ; : : ; ; ; ; ; ; : : ; ; ; ; ; ; : : ; ; ; ; ; ; : ",
": ; ; ; ; ; ; : : ; ; ; ; ; ; : : ; ; ; ; ; ; : : ; ; ; ; ; ; : : ; ; ; ; ; ; : : ; ; ; ; ; ; : : ; ; ; ; ; ; : : ; ; ; ; ; ; : ",
"; o X X X X o ; ; o X X X X o ; ; o X X X X o ; ; o X X X X o ; ; o X X X X o ; ; o X X X X o ; ; o X X X X o ; ; o X X X X o ; ",
"; X X X X X X ; ; X X X X X X ; ; X X X X X X ; ; X X X X X X ; ; X X X X X X ; ; X X X X X X ; ; X X X X X X ; ; X X X X X X ; ",
"; X X X X X X ; ; X X X X X X ; ; X X X X X X ; ; X X X X X X ; ; X X X X X X ; ; X X X X X X ; ; X X X X X X ; ; X X X X X X ; ",
"; X X X X X X ; ; X X X X X X ; ; X X X X X X ; ; X X X X X X ; ; X X X X X X ; ; X X X X X X ; ; X X X X X X ; ; X X X X X X ; ",
"; X X X X X X ; ; X X X X X X ; ; X X X X X X ; ; X X X X X X ; ; X X X X X X ; ; X X X X X X ; ; X X X X X X ; ; X X X X X X ; ",
"; o X X X X o ; ; o X X X X o ; ; o X X X X o ; ; o X X X X o ; ; o X X X X o ; ; o X X X X o ; ; o X X X X o ; ; o X X X X o ; ",
": ; ; ; ; ; ; : : ; ; ; ; ; ; : : ; ; ; ; ; ; : : ; ; ; ; ; ; : : ; ; ; ; ; ; : : ; ; ; ; ; ; : : ; ; ; ; ; ; : : ; ; ; ; ; ; : ",
": ; ; ; ; ; ; : : ; ; ; ; ; ; : : ; ; ; ; ; ; : : ; ; ; ; ; ; : : ; ; ; ; ; ; : : ; ; ; ; ; ; : : ; ; ; ; ; ; : : ; ; ; ; ; ; : ",
"; o X X X X o ; ; o X X X X o ; ; o X X X X o ; ; o X X X X o ; ; o X X X X o ; ; o X X X X o ; ; o X X X X o ; ; o X X X X o ; ",
"; X X X X X X ; ; X X X X X X ; ; X X X X X X ; ; X X X X X X ; ; X X X X X X ; ; X X X X X X ; ; X X X X X X ; ; X X X X X X ; ",
"; X X X X X X ; ; X X X X X X ; ; X X X X X X ; ; X X X X X X ; ; X X X X X X ; ; X X X X X X ; ; X X X X X X ; ; X X X X X X ; ",
"; X X X X X X ; ; X X X X X X ; ; X X X X X X ; ; X X X X X X ; ; X X X X X X ; ; X X X X X X ; ; X X X X X X ; ; X X X X X X ; ",
"; X X X X X X ; ; X X X X X X ; ; X X X X X X ; ; X X X X X X ; ; X X X X X X ; ; X X X X X X ; ; X X X X X X ; ; X X X X X X ; ",
"; o X X X X o ; ; o X X X X o ; ; o X X X X o ; ; o X X X X o ; ; o X X X X o ; ; o X X X X o ; ; o X X X X o ; ; o X X X X o ; ",
": ; ; ; ; ; ; : : ; ; ; ; ; ; : : ; ; ; ; ; ; : : ; ; ; ; ; ; : : ; ; ; ; ; ; : : ; ; ; ; ; ; : : ; ; ; ; ; ; : : ; ; ; ; ; ; : "
};
