/* XPM */
static const char *wall1[] = {
/* columns rows colors chars-per-pixel */
"64 64 61 1 ",
"  c #1D222C",
". c #1E232D",
"X c #1F242E",
"o c #20252F",
"O c #212630",
"+ c #222731",
"@ c #232832",
"# c #242933",
"$ c #252A34",
"% c #262B35",
"& c #272C36",
"* c #282D37",
"= c #292E38",
"- c #2A2F39",
"; c #2B303A",
": c #2C313B",
"> c #2D323C",
", c #2E333D",
"< c #2F343E",
"1 c #30353F",
"2 c #313640",
"3 c #323741",
"4 c #333842",
"5 c #343943",
"6 c #353A44",
"7 c #363B45",
"8 c #373C46",
"9 c #383D47",
"0 c #393E48",
"q c #3A3F49",
"w c #3B404A",
"e c #3C414B",
"r c #3D424C",
"t c #3E434D",
"y c #3F444E",
"u c #40454F",
"i c #414650",
"p c #424751",
"a c #464B55",
"s c #474C56",
"d c #484D57",
"f c #494E58",
"g c #4A4F59",
"h c #4B505A",
"j c #4C515B",
"k c #4D525C",
"l c #4E535D",
"z c #4F545E",
"x c #50555F",
"c c #515660",
"v c #525761",
"b c #535862",
"n c #545963",
"m c #555A64",
"M c #565B65",
"N c #575C66",
"B c #595E68",
"V c #5B606A",
"C c #5C616B",
"Z c #6D727C",
"A c #6E737D",
/* pixels */
"jjjjjjjjjjjhjjjjjjjjjjjjfjjjjjjjjjjjjjjxjjjjjjjjjjjjjjjjjjjjjjjj",
">>>>>>>>>>:=>>>>>>>>>>>>>>>>>>>>>>>>>>>>>>>>:>>>>>>>>>>>>>>>>>>>",
"<=========%======&==========================%===================",
"=====================================#==========================",
"========>=:>:=============================#=====================",
"=:=====>=1jkf1==%============#==================================",
"======>=>jAnxf>=========#=======;=====================*=========",
"========>jnxxj>====>========@===================================",
"&&&&&&&&;sxmxs=&&&&*&&&&&&&&%&&&&&&&&&&&&&&&&&&&&&=&&&&&+&&&&&&&",
".X......+&jxj%X.....................X.............X.............",
"fkffffffffkzkfffffffffffffffffffffffhfffffffffffsfffffffffffffff",
"121>111212111111111111115112111111111111111111111112111114111511",
":::::::2>2::::::::::::::::::::::::::::::<1<::=:::::2::::::::::::",
":::>::::::::::::::::::::::::::::=::::::4jkf4:::::::::<1<::2:::::",
"::::::::::::::::::::::::::>*::::<:::::1kAnxf1:::::::4jkf4:::::::",
"::::::&:::::::::::::::::::::::::::::::1znxxj1::::::2kAnxf1:::2::",
"===%===%========================<=====>dxxxs>======>jnxxj>===;==",
"oo+ooooooo.oooooooooooooo+oooooo+o.ooo+=jxj=+oooooo%hxxxh%ooo+oo",
"ffkffffffffffffffffffffffkfffffffffffffhzxzhfafffffhzkkkzhffffff",
"222222222222222222222222222222>222222>222222212222222121<2222222",
">>>>>>>>>>>>>1>>>>>>>>>>>>>>>>>>>>>>>>>>>>>>>>>>>>>>>><>>>>>>>>>",
">>>>>>>>>>>>>>>>>*>>>>>>>>>>>>>>>>>>>>>>>>>>>>>2>>>>>>>>>>>>>>>2",
">>>>>>>>>>>>>>>>>>>>>>>>>>>>>>><>>>>>>>>>>>>>>>>>>2>>>>>>>>>>>>>",
">>>>>>>>>>>>>:>>>>>>>>>>>>>>>>>>>>>>>>>;>>>>>>>>>>>>>>>>>>>>>>>>",
">>>>>>>>>>>>>>>>>>>>>>>>>>>>>>>>>>>>>>>>>>>>2>>2>>>>>*>>>>>>*>>>",
">>>>>>>2>>>>>>>>>>>>>>>>>>>>>>>>>>>>>>>>>2>>>>>>>>>>>>>>>>>*>>>>",
">>>>>>>>>>>>>>>*>>>>>>>>>>>>>>>>>>>>>>>>>>>>>>>>>>>>>>>>>>>>>>>>",
">>>>>>>2>>>>>>>>>>>>>>>>>>>>>>>>>2>>>>2>>>>>>>>>>>>>>>>>>>>>>>>>",
">>>;>>>>>>>>=>>>>>>>>>>>>>>>>>>><>>>>>>>>>>>>>>>>>>>>>>><>>>>>>>",
">:>>>>2>>>>>>>>>>>>>>>>>>>>>>>2>>>>>>>>>>>>>>>>>>>>>>>>>>>>>>>>>",
";;;;;;:;;;;;;;*;;;;;;;;;%2;;;;:;;;;;;;;;;;;;;;;;;;;;;;;>;;;;;;;;",
"+++++++++++++++++++++++++@+++++++++++++++++++++++++++++@++++++++",
"kkkkkkkkkkkkkkkkkkkkkkkkkkkkkkkkkkkkkkkkkkkkkkkkkkkkkkkkkkkkkkkk",
"555555q555555555555555555555555555655555525554555555554555555555",
"111111111111111111111111111111111161121111111:11111111;111111111",
"111111111111111111626111111611111111111:111<1111111;11<111111111",
"1111141111111111111111111111111211111111111111111111161111111111",
"4111111111111111111111111111111116111111111111111111111111111111",
"1111111111111111111111114441111161111111111111111111111111111111",
"111111111111111111116116kkf6111111111114111111111<11111111;11111",
"11111111116111444111114kAnxd211111111161111111411211144411111111",
"11111111116116kkf611114knxxk6441111111111111111111116kkf11111111",
">>>>>>>>>><>2kAnxf2>>>1fxxxxxkf6<>>>>>>>>>><>1>>>>>2kAnxf22><>>>",
"%%%%%%%%%%%%=jxxxh=%%%%>kncmAncd=%%%%%@%%%%=%#%%%%%=jnxxh=%%%%%%",
"mNmmmmmmmmmmnxxkxxnmmmNNVCBbnxjzmmmmmmmmmmmNmmmmmcmnxxxxxnmmmmmm",
"tittttttqttttuhkhuttttitttukxxxjutttuwutttttttttttttuhkhuttttttt",
"qqqqqqqqqqwqqqtttqqqqq6qqqqthkhtqqquxkhyqq8qqqqqqqqqqtttqqqqqqqq",
"tqqqqqqqqqqqqqqqqqqtqqqqqqqqtttqqqtxAnxhtqqqqqqqqqqqqqqqqqqqqqqq",
"qqqqqqqqqqqqqqyqqqqqqqqqqqqqqqqqqqtknxxktqqqqqqqqqqqqqqqqqqqqqqq",
"qqqqqqqqqqqwqqqqqqqqqqqqqqqqqq6qqqthxxxhtqqqqqqqqqqqqqqqqqqqqqqq",
"qqqqqqqqqqqqqqqqqqqqqqqqqqqqqqqqqqqthkhtqqqqqqqqqqqqqqqwqqqqqqqq",
"qqqqqqqqqqqqqqqqqq6qqqqq6qqqqqqqqqqqeteqqqqqqqqqqq8qqqqqqqqqqqqq",
"999998999999999999899999899999999999999999999999w98q999999969899",
">>>>>;>>>>>>>>>>>>><>>>>>>>>>>>>>>>>>>>>>>>>>>>>>>>>>>>>>>>>>;>>",
"cncccccccccccccccxccxccccccccccccccccccccccccccccccccccccccccncc",
"99888q8888888888848848888888888888888888888888888888888898889988",
"q44444444444444444<44444444444444444444444444444444444448444qq44",
"4444444444444444444444446444>>4444444444444444444444444444444444",
"4444444444444444444644444444444444444444444444444444444444444544",
"4444444444444444449444446444449444444444444444444444444444444444",
"4444444444444444444444444444444444444444444444444444444464444444",
"444444444444444444444444444444444<444444444444444444444444494444",
"111111111111111111111111111111111111>111111>11111112411>11121111",
"++++++++++++++++++++++++.+++++++++++++++++++++++++++++++.+++++++"
};
